<svg xmlns="http://www.w3.org/2000/svg" xmlns:xlink="http://www.w3.org/1999/xlink" viewBox="0 0 528.03 416.74"><defs><style>.cls-1{isolation:isolate;}.cls-2{fill:#3161a3;}.cls-15,.cls-16,.cls-17,.cls-3,.cls-32,.cls-4,.cls-5{mix-blend-mode:overlay;}.cls-3{fill:url(#linear-gradient);}.cls-4{fill:url(#linear-gradient-2);}.cls-5{fill:url(#linear-gradient-3);}.cls-6,.cls-9{opacity:0.1;}.cls-7{fill:#ebfffb;}.cls-8{fill:#7efaff;}.cls-10{fill:#13abc4;}.cls-11{fill:#06818e;}.cls-12{fill:#16c5d8;}.cls-13{fill:#1293a0;}.cls-14{fill:#16d8d8;}.cls-15{fill:url(#linear-gradient-4);}.cls-16{fill:url(#linear-gradient-5);}.cls-17{fill:url(#linear-gradient-6);}.cls-18{fill:#e8b787;}.cls-19{fill:#042f33;}.cls-20{fill:#073c45;}.cls-21{fill:#3c85ce;}.cls-22{fill:#cbfdff;}.cls-23{fill:#62e2f7;}.cls-24{fill:#3899e8;}.cls-25{fill:#1ad2e5;}.cls-26{fill:#edb6a4;}.cls-27{fill:#65c8cc;}.cls-28{fill:#1d7bd8;}.cls-29{fill:#a6c0c4;}.cls-30{fill:#dda494;}.cls-31{fill:#124787;}.cls-32{fill:url(#linear-gradient-7);}</style><linearGradient id="linear-gradient" x1="401.34" y1="296.21" x2="412.77" y2="351.19" gradientUnits="userSpaceOnUse"><stop offset="0" stop-color="#fff"/><stop offset="1"/></linearGradient><linearGradient id="linear-gradient-2" x1="214.76" y1="100.95" x2="483.77" y2="100.95" xlink:href="#linear-gradient"/><linearGradient id="linear-gradient-3" x1="2.79" y1="145.45" x2="247.08" y2="145.45" xlink:href="#linear-gradient"/><linearGradient id="linear-gradient-4" x1="174.81" y1="146.35" x2="187.97" y2="146.35" gradientTransform="translate(199.58 152.95) rotate(10.93)" xlink:href="#linear-gradient"/><linearGradient id="linear-gradient-5" x1="157.7" y1="111.63" x2="176.29" y2="111.63" gradientTransform="translate(199.58 152.95) rotate(10.93)" xlink:href="#linear-gradient"/><linearGradient id="linear-gradient-6" x1="137.57" y1="142.25" x2="157.8" y2="142.25" gradientTransform="translate(199.58 152.95) rotate(10.93)" xlink:href="#linear-gradient"/><linearGradient id="linear-gradient-7" x1="162.44" y1="181.65" x2="474.96" y2="11.19" xlink:href="#linear-gradient"/></defs><title>web</title><g class="cls-1"><g id="Layer_1" data-name="Layer 1"><g id="Management_Project" data-name="Management Project"><path class="cls-2" d="M483.26,119.22c-5.1,35.27-45.42,44.16-34.36,83.26.31,1,.66,2,1,3,26.48,82.43,38.49,130.67-45.42,151.18-23.38,5.71-44.24,2.57-63.36-5.31-44.8-18.55-79.9-63.53-114.95-82.78a83.16,83.16,0,0,0-12.76-5.79c-51.47-18-38,5-132.51,7S-43,173.61,111.43,59a265.42,265.42,0,0,1,71.72-37.93,273.3,273.3,0,0,1,31.61-8.79A288.41,288.41,0,0,1,277,6h0c89.79.56,169.31,40.41,196,74.46,4.79,6,7.88,11.93,9.06,17.37A59.92,59.92,0,0,1,483.26,119.22Z"/><path class="cls-3" d="M404.44,356.67c-23.38,5.71-44.24,2.57-63.36-5.31a33.91,33.91,0,0,1,2.49-9c3.92-9,11.49-16.07,20-20.9s18-7.71,27.56-10.1c7.36-1.88,14.81-3.49,22.3-4.88,11.19-2,23.08-3.79,31.74-11.1,8-6.75,11.93-17.46,12.06-28s-3.26-20.68-7.88-30.09a35.25,35.25,0,0,1-3.09-7.31,27,27,0,0,1,.13-10.06,98.27,98.27,0,0,1,3.31-14.11c0-.13.09-.26.13-.39C476.34,287.92,488.35,336.16,404.44,356.67Z"/><path class="cls-4" d="M483.26,119.22a57.71,57.71,0,0,0-24.69-2.7c-16.33,2-32.05,12.94-36.75,28.74-2.92,9.84-1.79,21.38-8.36,29.27-3.23,3.87-7.84,6.22-12.41,8.27-30.49,13.67-66.19,18.07-97.46,6.31S247.16,147.4,246.42,114c-.13-7.23.91-14.81,5.09-20.73,3.83-5.44,9.89-8.88,15.94-11.71A146.39,146.39,0,0,1,302.5,70.1c4.58-.91,9.37-1.61,13.42-4s7.18-7,6.27-11.54c-.7-3.75-3.79-6.53-7.06-8.41-14-8-31.48-3.48-47.51-4.92-13.28-1.17-25.86-6.57-36.92-13.93-6.1-4.09-11.93-9-15.94-15C344.39-15.42,472.94,55,482.17,97.84A59.92,59.92,0,0,1,483.26,119.22Z"/><path class="cls-5" d="M247.07,215.5c.13,12.85-1.87,26-8.19,37.28a63.7,63.7,0,0,1-12.75,15.8,83.16,83.16,0,0,0-12.76-5.79c-51.47-18-38,5-132.51,7S-43,173.61,111.43,59a265.42,265.42,0,0,1,71.72-37.93c-3.84,2.83-8.67,5.4-11.32,7.8a76.21,76.21,0,0,0-14.59,16.76c-8,13.11-10,31.18-.53,43.24,3.75,4.79,8.89,8.23,13.16,12.59s7.75,10.19,6.75,16.15c-1.09,6.45-6.84,10.89-12.28,14.46a279.28,279.28,0,0,1-32.88,18.64c-7.67,3.7-15.59,7.09-22.12,12.54s-11.63,13.32-11.41,21.81c.26,9.19,6.92,17.42,15.2,21.43s17.94,4.4,27.08,3.13c11.72-1.56,23.56-6.05,31.35-15,7.62-8.71,10.85-21.12,20.08-28.13,12.19-9.27,31.05-5,41.45,6.27S246.94,200.17,247.07,215.5Z"/><path class="cls-6" d="M166.13,67.12c3.75,8.2,10.33,19.7,18.79,23l22.34-8.84c-23.76-10.72-24.86-31.9-24.86-31.9L167,56.34C166.65,59.83,166.39,63.44,166.13,67.12Z"/><path class="cls-7" d="M208.45,76.48C184.73,65.76,183.58,44.6,183.58,44.6l-19.77,8.91S172.53,80,186.13,85.33Z"/><polygon class="cls-8" points="184.8 54.6 186.13 60.07 177.53 62.09 175.11 57.38 184.8 54.6"/><polygon class="cls-8" points="189.91 66.26 176.72 72.35 186.13 78.77 195.56 72.51 189.91 66.26"/><polygon class="cls-8" points="186.78 62.66 187.99 64.27 178.71 68.81 176.72 66.69 186.78 62.66"/><path class="cls-6" d="M105.58,99.84l11.2,5s-4.94,15-12.64,18l-12.64-5C104.93,111.83,105.58,99.84,105.58,99.84Z"/><path class="cls-7" d="M91.5,113.54c13.43-6.07,14.08-18.06,14.08-18.06l11.2,5s-4.94,15-12.64,18Z"/><polygon class="cls-8" points="111.99 102.13 105.12 102.13 108.56 106.16 111.99 102.13"/><polygon class="cls-8" points="105.12 108.13 109.37 112.25 105.12 114.64 99.02 110.42 105.12 108.13"/><polygon class="cls-8" points="104.14 115.59 97.56 112.25 95.72 113.92 103.72 117 104.14 115.59"/><path class="cls-6" d="M93.77,194.15l-15.28-4.77s-8.16,18.88-3.28,28.5l16.66,6.05C84,206.39,93.77,194.15,93.77,194.15Z"/><path class="cls-7" d="M95.64,219.68c-7.83-17.54,1.9-29.77,1.9-29.77l-15.28-4.78S74.11,204,79,213.63Z"/><polygon class="cls-8" points="85.55 190.84 92.24 196.78 85.41 197.73 85.55 190.84"/><polygon class="cls-8" points="87.05 202.62 79.34 202.96 81.42 208.96 91.02 210.13 87.05 202.62"/><polygon class="cls-8" points="81.56 210.74 90.84 213.18 91.2 216.4 80.75 212.47 81.56 210.74"/><path class="cls-6" d="M47.56,163.81l6,6.51s-7.5,8.61-13.49,8.47l-7-6.9C43.76,171.62,47.56,163.81,47.56,163.81Z"/><path class="cls-7" d="M34.32,169c10.67-.27,14.47-8.08,14.47-8.08l6.05,6.51s-7.51,8.61-13.5,8.47Z"/><polygon class="cls-8" points="51.19 167.13 46.62 165.2 47.77 168.85 51.19 167.13"/><polygon class="cls-8" points="44.93 169.2 46.6 173.15 43.1 173.54 40.22 169.01 44.93 169.2"/><polygon class="cls-8" points="42.18 173.9 38.73 169.83 37.03 170.42 41.5 174.72 42.18 173.9"/><polygon class="cls-8" points="426 77.11 407.4 166.51 406.31 171.78 405.97 173.39 402.61 189.33 374.14 326.45 371.09 341.13 370.22 341 302.63 332.59 298.76 332.12 176.35 316.87 184.06 279.73 202.83 189.42 231.26 52.69 426 77.11"/><g class="cls-9"><path d="M407.39,166.51l-4.77,22.81-52.53,17.93-25.87-75.91L351.56,122c0-.11-.11-.11-.11-.23a4.79,4.79,0,0,1,9.08-3.06V119L388,109.66Z"/><path d="M269.28,123.18c0-.05.11-.05.14-.1a3.18,3.18,0,0,0-5.49-3.21c0,.06,0,.12,0,.17l-15.06-8.79-26.82,46,35.51,20.72,26.82-46Z"/><path d="M280.31,200.08a2.82,2.82,0,1,0-5.63-.07c0,.05.05.09.05.14L259.28,200l-.58,47.13,36.42.46.58-47.14-15.45-.19C280.25,200.16,280.31,200.13,280.31,200.08Z"/><path d="M347,230.2a3.07,3.07,0,0,0-5.69-2.3c0,.06,0,.11,0,.17l-15.62-6.32L306.45,269.4l36.82,14.89,19.26-47.65-15.62-6.32S347,230.26,347,230.2Z"/></g><rect class="cls-10" x="328.23" y="106.04" width="67.37" height="80.14" transform="translate(-27.79 124.73) rotate(-18.84)"/><rect class="cls-7" x="330.22" y="122.41" width="24.82" height="11.23" transform="translate(-22.99 117.53) rotate(-18.84)"/><rect class="cls-7" x="334.92" y="136.99" width="44.09" height="6.38" transform="translate(-26.15 122.82) rotate(-18.84)"/><rect class="cls-7" x="338.56" y="148.55" width="33.45" height="6.38" transform="translate(-29.97 122.89) rotate(-18.84)"/><rect class="cls-7" x="341.78" y="157.52" width="38.89" height="6.38" transform="translate(-32.55 125.29) rotate(-18.84)"/><rect class="cls-7" x="344.9" y="165.91" width="47.87" height="6.38" transform="translate(-34.85 128.19) rotate(-18.84)"/><path class="cls-11" d="M353.43,106.42a4.79,4.79,0,1,1-6.08-3A4.78,4.78,0,0,1,353.43,106.42Z"/><rect class="cls-10" x="225.53" y="105.68" width="41.12" height="53.22" transform="translate(100.19 -105.98) rotate(30.26)"/><rect class="cls-7" x="238.54" y="111.02" width="16.48" height="7.46" transform="translate(91.45 -108.73) rotate(30.26)"/><rect class="cls-7" x="229.27" y="129.29" width="22.21" height="4.24" transform="translate(98.97 -103.22) rotate(30.26)"/><rect class="cls-7" x="225.54" y="136.17" width="25.82" height="4.24" transform="translate(102.17 -101.32) rotate(30.26)"/><path class="cls-11" d="M262.32,110.77a3.18,3.18,0,1,1-1.14-4.35A3.18,3.18,0,0,1,262.32,110.77Z"/><rect class="cls-10" x="251.89" y="187.87" width="36.42" height="47.14" transform="translate(2.64 -3.33) rotate(0.71)"/><rect class="cls-7" x="255.68" y="194.32" width="14.6" height="6.61" transform="translate(2.46 -3.23) rotate(0.71)"/><rect class="cls-7" x="255.54" y="203.33" width="19.68" height="10.42" transform="translate(2.61 -3.28) rotate(0.71)"/><rect class="cls-7" x="255.33" y="220.33" width="22.88" height="10.42" transform="translate(2.82 -3.29) rotate(0.71)"/><path class="cls-11" d="M273.21,187.77a2.82,2.82,0,1,1-2.78-2.85A2.8,2.8,0,0,1,273.21,187.77Z"/><rect class="cls-10" x="307.54" y="215.01" width="39.71" height="51.4" transform="translate(114.09 -105.17) rotate(22.01)"/><rect class="cls-7" x="317.67" y="220.25" width="15.92" height="7.2" transform="translate(107.65 -105.74) rotate(22.02)"/><rect class="cls-7" x="312.16" y="233.1" width="21.45" height="9.81" transform="translate(112.75 -103.68) rotate(22.01)"/><rect class="cls-7" x="308.46" y="245.45" width="24.94" height="4.09" transform="translate(116.17 -102.25) rotate(22.01)"/><rect class="cls-7" x="305.46" y="251.66" width="24.94" height="4.09" transform="translate(118.28 -100.67) rotate(22.01)"/><path class="cls-11" d="M339.93,217.9a3.07,3.07,0,1,1-1.69-4A3.06,3.06,0,0,1,339.93,217.9Z"/><path class="cls-10" d="M366.69,345.35H310.1a7.46,7.46,0,0,1-7.46-7.46V304.22a7.46,7.46,0,0,1,7.46-7.46H328a7.45,7.45,0,0,1,5.22,2.14l4.68,4.59a7.45,7.45,0,0,0,5.23,2.14h23.59a7.46,7.46,0,0,1,7.46,7.46v24.8A7.46,7.46,0,0,1,366.69,345.35Z"/><path class="cls-12" d="M362.79,347.83H306.2a7.46,7.46,0,0,1-7.46-7.46V306.7a7.46,7.46,0,0,1,7.46-7.46h17.87a7.45,7.45,0,0,1,5.22,2.14L334,306a7.45,7.45,0,0,0,5.22,2.14h23.6a7.46,7.46,0,0,1,7.46,7.46v24.8A7.46,7.46,0,0,1,362.79,347.83Z"/><rect class="cls-13" x="318.72" y="317.9" width="1.79" height="3.58" transform="translate(-84.3 522.71) rotate(-71.69)"/><path class="cls-7" d="M336.16,324.23l-.56,1.7,7.27,2.4.57-1.7Zm-7.27-2.39-.56,1.7,3.61,1.17.57-1.7Z"/><polygon class="cls-13" points="346.49 329.55 347.05 327.85 349 328.49 348.59 326.49 350.35 326.14 351.36 331.17 346.49 329.55"/><path class="cls-7" d="M346.75,308.12l-.53-2.48-.78-4.18-.26-1.22-1.79.35.26,1.26.74,3.79.53,2.48.21,1.09,1.75-.35Zm1,5.05-1.74.35.87,4.31,1.74-.35Z"/><rect class="cls-13" x="342.16" y="292.53" width="1.79" height="3.59" transform="translate(-51.16 73.17) rotate(-11.34)"/><path class="cls-14" d="M353.56,335.48a6.58,6.58,0,1,1,2.26-9,.91.91,0,0,1,.13.3A6.52,6.52,0,0,1,353.56,335.48Z"/><path class="cls-14" d="M347.48,300.57a9.31,9.31,0,0,1-10.68-15.18,9.16,9.16,0,0,1,1.15-.81,9.3,9.3,0,0,1,12.73,3.22,9,9,0,0,1,1.3,4.57A9.19,9.19,0,0,1,347.48,300.57Z"/><path class="cls-14" d="M323.1,327.8a10.11,10.11,0,0,1-11-17,4.81,4.81,0,0,1,.6-.4,10.12,10.12,0,0,1,13.86,3.51,10.14,10.14,0,0,1-3.5,13.86Z"/><path class="cls-15" d="M353.56,335.48a6.59,6.59,0,0,1-9-9.15,5.82,5.82,0,0,1,2.33,1.87,9.62,9.62,0,0,0,2.39,2.33,3.88,3.88,0,0,0,5.93-1.61,9.65,9.65,0,0,0,.7-2.17A6.52,6.52,0,0,1,353.56,335.48Z"/><path class="cls-16" d="M347.48,300.57a9.31,9.31,0,0,1-10.68-15.18,4.19,4.19,0,0,1,3,2.65,8.84,8.84,0,0,1,.23,2.42c.09,2,.72,4.2,2.41,5.36s4.46,1,6.37-.24a9.89,9.89,0,0,0,2.39-2.22c.19-.24.45-.65.74-1A9.19,9.19,0,0,1,347.48,300.57Z"/><path class="cls-17" d="M323.1,327.8a10.11,10.11,0,0,1-11-17,5.42,5.42,0,0,1,1,.41,6.1,6.1,0,0,1,2.84,3.28,30.18,30.18,0,0,1,.83,4.76c.28,1.59,1,3.27,2.53,3.88a4.86,4.86,0,0,0,3.58-.3,9.72,9.72,0,0,0,3.45-2.6,18.36,18.36,0,0,0,1.51-2.86A10.06,10.06,0,0,1,323.1,327.8Z"/><path class="cls-6" d="M241.06,264l-38.23-74.59-18.77,90.31,3.53,7.79,7.18-3.17,2.44-1.05c.09,0,.09.09.18.13,4.74,2.35,10.49-1.48,11.06-4.27a1,1,0,0,0-.48-.61Z"/><path class="cls-6" d="M514.53,404.23c0,1.14-6.8,2.06-15.18,2.06s-15.18-.92-15.18-2.06,6.79-2.06,15.18-2.06S514.53,403.09,514.53,404.23Z"/><path class="cls-6" d="M452.1,404.23c0,1.14-6.79,2.06-15.18,2.06s-15.18-.92-15.18-2.06,6.8-2.06,15.18-2.06S452.1,403.09,452.1,404.23Z"/><path class="cls-18" d="M488.49,382s2.71,7.87,7,9.13a42.24,42.24,0,0,0,10.6,1.86l3.09,1.88L485.48,404s-2.66-2.34-1.82-7.5c.5-3.07-2.46-10-2.46-10Z"/><path class="cls-2" d="M496.26,391.32c-.56-1.44,12.07-1.65,13.92.56s-.82,3.69-4.53,5.22-20.81,9.19-21.9,7.94-2.89-8-1.33-8.51-.72,1.24,3.72.27S496.51,392,496.26,391.32Z"/><path class="cls-6" d="M481.79,398.6c.1,2.31,1.19,5.57,1.93,6.41,1.14,1.32,18.21-6.39,21.93-7.89s6.4-3,4.53-5.25a5.47,5.47,0,0,0-2.66-1.16c-.73.3-1.45.61-2.09.91s-1.29.71-1.94,1.1a62.84,62.84,0,0,0-5.65,5,20.38,20.38,0,0,1-5.65,3.75,2.62,2.62,0,0,1-.73.3,14.25,14.25,0,0,1-2.07.48,7.26,7.26,0,0,1-5.77-2,8.92,8.92,0,0,1-1-1A2.68,2.68,0,0,0,481.79,398.6Z"/><path class="cls-19" d="M493.39,385.39l-14,5.72L449.56,338c-16.27-2.09-26.24,5.48-42.86-7.62-9.61-8.82-9.78-15.08.45-23.74,23.38.58,44,5.91,54.55,16.38C472.58,333.7,482.07,354.24,493.39,385.39Z"/><path class="cls-18" d="M450.34,368.16s-4.16,7.21-2.32,11.24a42.08,42.08,0,0,0,5.54,9.22l.6,3.57-22.44-11.84s0-3.54,4.47-6.3c2.65-1.63,5.95-8.42,5.95-8.42Z"/><path class="cls-2" d="M448.38,380.15c.72-1.36,9.16,8,8.71,10.87s-3.31,1.8-6.91,0-20.59-9.68-20.35-11.33,4.15-7.44,5.54-6.58-1.4.27,2.24,3S448.05,380.77,448.38,380.15Z"/><path class="cls-6" d="M433.4,374c-1.68,1.59-3.42,4.55-3.58,5.66-.24,1.73,16.77,9.55,20.35,11.38s6.45,2.87,6.93,0a5.48,5.48,0,0,0-.87-2.77c-.7-.35-1.41-.7-2.06-1a20.7,20.7,0,0,0-2.1-.74,60.75,60.75,0,0,0-7.47-1,20.21,20.21,0,0,1-6.54-1.81,2.48,2.48,0,0,1-.71-.35,13.5,13.5,0,0,1-1.71-1.25,7.26,7.26,0,0,1-2.28-5.67,9.32,9.32,0,0,1,.07-1.37A2.94,2.94,0,0,0,433.4,374Z"/><path class="cls-20" d="M472.58,337.59c-3.67,6.88-7.88,13.88-11.88,20.2-3.77,6.33-7.44,12-10.1,16.21l-12.32-6.11,12.21-28.19,8.32-19.2,2.11-4.77a46.92,46.92,0,0,0-8.88.33c-10.65-5.55-25.3-8.54-41.5-9.21-3.67-6.21-1.88-1.43,5.45-8.42,23.3-1,54.4-8.23,65.72,1.54C490,304.63,481.45,320.83,472.58,337.59Z"/><path class="cls-21" d="M461.48,287.25,444,313.6a1.82,1.82,0,0,0,1.42,2.82l26.2,1.47a1.83,1.83,0,0,0,1.8-1.15l10.4-26.31a1.83,1.83,0,0,0-1.55-2.49l-19.11-1.5A1.82,1.82,0,0,0,461.48,287.25Z"/><path class="cls-7" d="M459.11,296.3l-3.66,5.51a.38.38,0,0,0,.3.59l5.48.31a.38.38,0,0,0,.37-.24l2.18-5.5a.38.38,0,0,0-.33-.52l-4-.31A.39.39,0,0,0,459.11,296.3Z"/><path class="cls-18" d="M411.79,244.85c-4.51,8.59-7.76,15.42-6.38,18.59,6.32,9.25,25.26,17.36,46.3,25.28l3.75-4.21-35.92-24.57,3.07-11.06C418.33,247.78,415.35,247.59,411.79,244.85Z"/><path class="cls-18" d="M455.46,284.51c2.29-1.15,3.84-1.06,7.15-.71,2.93,1.55,4.3,3.71,6.46,6.28.28,1.79.69,1.13-1.15,1.53l-5-1.78c-2.95.26-4.15,1-6.67.67-.8-.08-3.63-.33-4.5-1.78Z"/><path class="cls-22" d="M420.69,258.33s-12.14-3.12-13-5.34,4.3-9.52,4.3-9.52l10.58,2.7Z"/><path class="cls-23" d="M432.9,303.78s-8.69,16.29-30.89,17.14c-20.3.77-20.58-63.82-3.46-78.83,9.4-7.25,16.62-4.86,21.49-.31C432.25,257.87,414.09,279,432.9,303.78Z"/><path class="cls-18" d="M405.71,238.63c.78.68,1.47,1.32,2.28,1.92a35.25,35.25,0,0,0,8,4.24,27.45,27.45,0,0,1,1.4-5.12c.61-1.56,2-3.08,2.92-4.52l-8.78-3.45C411.51,233.88,408.72,236.2,405.71,238.63Z"/><path class="cls-6" d="M405.71,238.63c.78.68,1.47,1.32,2.28,1.92.33-.35.57-.73.86-1a5,5,0,0,1,3.9-1c1.36.14,2.65.46,4,.6.08,0,.08,0,.2,0a23.3,23.3,0,0,1,2.27-4.41l-7.73-3C411.51,233.88,408.72,236.2,405.71,238.63Z"/><path class="cls-18" d="M416.87,209.69l-8.15,21.13c4.57,5.06,9.11,8.7,13.5,9.07a53.39,53.39,0,0,0,9.09-10.09A41.54,41.54,0,0,0,437,218.41Z"/><path class="cls-6" d="M416.87,209.69l-7.16,18.58a15.83,15.83,0,0,0,4.1-2.57c1.41-1,3.1-1.92,4.82-1.73,2.25.3,3.81,2.13,5.71,3.33a18.08,18.08,0,0,0,4,1.75,11.58,11.58,0,0,0,2.93.75A41.54,41.54,0,0,0,437,218.41Z"/><path class="cls-7" d="M433.18,228.14c-4.68-4-8.49-1.41-7.78,3.27a3.41,3.41,0,0,1-2.22-1.08c-1.4-2.05-.2-3.25-.73-4.53s-.95-1.75-2.32-1.12c-1.19.54-.95,2.39-.84,4.55.24,4.9-11,2.79-10.58,1.55-1.34-.19-4.61-16.07,3.9-20.63,8.31-4.46,12.31-.58,15.45.7,9,3.66,9.88-3.83,12.94-.35C448.14,218.59,437.71,232.84,433.18,228.14Z"/><path class="cls-6" d="M399.66,286c4.19,5.78,13.28,5.73,18,11.12,1.79,2,2.73,4.8,4.85,6.54a14.45,14.45,0,0,0,6.05,2.59c1.16.2,2.32.49,3.39.7a22.73,22.73,0,0,0,2-2.84,43.49,43.49,0,0,1-7.82-15.73,71.06,71.06,0,0,1-9.33-4.53c-5.21-3.34-9.1-8.42-11.86-13.92a38,38,0,0,1-2.86-7.17,29,29,0,0,1,1-6.67,1,1,0,0,0-.88.13,1.1,1.1,0,0,0-.41.47,48,48,0,0,0-4.45,19C397.18,279.28,397.57,283.14,399.66,286Z"/><path class="cls-24" d="M472.92,318l-1.31-24a4.1,4.1,0,0,1,.45-2.12l12.65-24.71v20.17a4.24,4.24,0,0,1-.29,1.53Z"/><path class="cls-18" d="M402.46,263.53c-4.51,8.59-4,17.92-2.66,21.09,6.32,9.25,25.27,17.35,46.3,25.27l3.76-4.21-35.93-24.57L417,270.06C412.72,269,406,266.27,402.46,263.53Z"/><path class="cls-18" d="M449.86,305.68c2.28-1.14,3.83-1.05,7.14-.71,2.93,1.55,4.3,3.72,6.47,6.28.28,1.8.69,1.13-1.16,1.54l-5-1.78c-3,.26-4.15,1-6.68.67-.79-.09-3.63-.33-4.5-1.79Z"/><ellipse class="cls-6" cx="90.14" cy="389.5" rx="13.34" ry="2.13"/><polygon class="cls-25" points="240.93 247.17 203.06 263.82 194.67 267.51 187.49 270.67 183.73 262.34 176.61 246.37 159.9 209.17 159.69 208.7 141.7 168.49 135.39 154.53 129.28 140.83 147.34 130.16 153.05 126.8 173.19 114.92 240.93 247.17"/><polygon class="cls-7" points="166.24 134.22 157.75 140.85 186.66 198.79 194.98 187.29 166.24 134.22"/><polygon class="cls-7" points="149.18 152.04 143.19 156.94 180.5 234.74 191.97 223.65 149.18 152.04"/><path class="cls-6" d="M155,133.78l2.22-.47a1,1,0,0,1,.87,1.68c-2.21,1.88-3.09,1.07-5.3,2.89-3.56,10.4-7.86,21.41-11.08,30.61l-6.31-14c3.42-6.51,7.25-13.42,11.21-20.34-.33-.74-.2-1.88.4-3.49a5.75,5.75,0,0,1,.34-.54,8.21,8.21,0,0,1,5.71-3.35c2.21-.4,4.36.07,5.37,1C159.22,129.08,155,131.63,155,133.78Z"/><path class="cls-6" d="M204.14,262.14l-2.08.94a1.93,1.93,0,0,0,1,.74l-8.39,3.69-10.94-5.17-7.12-16c6.78,4.64,14.3,9.67,21.28,14.71,2.82.13,3-1,6-.74A1,1,0,0,1,204.14,262.14Z"/><path class="cls-26" d="M91.15,366.74s-5.16,4.58-6.83,4.43-3.65,4.58-3.65,4.58,14.42,12.87,18.67,11.4-1.44-5-3.22-6.91,1.66-8.31,1.66-8.31Z"/><path class="cls-27" d="M85.35,370s-7.7,3.72-4.9,7.36c4.08,5.33,25.49,16.85,23.75,10.16-.77-2.93-3.4-3.38-7-9.87-2.3-4.19-1.4.74-3.28.68-1.34,0-7.53-4.26-6.9-5.94C87.81,370.29,85.35,370,85.35,370Z"/><polygon class="cls-28" points="98.56 378.18 96.42 379.4 96.79 379.85 98.68 378.94 98.56 378.18"/><polygon class="cls-28" points="99.46 380.17 97.6 381.03 97.95 381.5 99.55 380.68 99.46 380.17"/><polygon class="cls-28" points="100.8 382.2 99.28 382.99 98.83 382.42 100.43 381.7 100.8 382.2"/><path class="cls-22" d="M99.81,374.18c17.06-24.6,32.71-46.05,41.06-62.18,6.94-19.63,9.38-38.31,10.18-56.64l-27.21-2.56c-11.6,30-4.1,46.94-7.6,56.71L87.35,368.27C90.35,370.51,95,373.94,99.81,374.18Z"/><path class="cls-6" d="M137,279.87a94.28,94.28,0,0,1,.18,23.32,13.43,13.43,0,0,1-.6,2.61,19.18,19.18,0,0,1-1.24,2.29c-5.57,8.7-7.17,19.31-12,28.33a20,20,0,0,0-2.72,6.15,3.68,3.68,0,0,0,0,1.92C129,332.16,136.11,321.2,140.9,312c6.87-19.67,9.38-38.29,10.19-56.66l-27.21-2.56a107.14,107.14,0,0,0-4.38,14.08,18.91,18.91,0,0,0,6.7,3.86c3.48,1.11,7.76,1.72,9.69,4.85A12.41,12.41,0,0,1,137,279.87Z"/><path class="cls-26" d="M141.52,384.79s-1.84,6.65-3.32,7.44-.57,5.83-.57,5.83,19.11,2.93,21.87-.62-4-3.45-6.46-4-3.13-7.87-3.13-7.87Z"/><path class="cls-27" d="M138.4,390.64s-4.43,7.31-.1,8.85c6.32,2.24,30.56.24,25.45-4.42-2.23-2-4.69-1-11.22-4.48-4.21-2.25-.78,1.38-2.39,2.36-1.15.69-8.63.52-9-1.22C140.65,389.59,138.4,390.64,138.4,390.64Z"/><polygon class="cls-28" points="153.96 390.35 152.83 392.54 153.39 392.71 154.48 390.92 153.96 390.35"/><polygon class="cls-28" points="155.81 391.53 154.71 393.26 155.26 393.46 156.15 391.91 155.81 391.53"/><polygon class="cls-28" points="158.03 392.5 157.19 393.99 156.5 393.75 157.45 392.28 158.03 392.5"/><path class="cls-22" d="M152.42,386.43c8.3-28.76,16.27-54.09,19-72,.3-20.82-3.36-39.3-8.46-56.92l-26.6,6.27c-1.41,32.12,11.12,45.79,10.93,56.16l-8.59,64.91C142.28,386,147.8,387.74,152.42,386.43Z"/><path class="cls-29" d="M118.18,267.85c1.69,11.81,51.19,10.43,50,3.94-8.45-28.85,1.85-38.74-7-66.13-2.65-8.63-16.7-17.33-26.29-10.38C118.53,211.07,132.12,226.13,118.18,267.85Z"/><path class="cls-26" d="M140.24,209.84c-1.85,12.45,0,21.85,4.42,26.83,8.67,6.93,29.12,17.62,50.32,27.33l2.88-6.59c-16.65-11.88-36.58-24.21-41.42-30.28.79-7.85,1.12-12.49.63-19.41C151.28,211.31,146.86,211.83,140.24,209.84Z"/><path class="cls-26" d="M197.86,257.41c2.82.19,3-1,6-.72a1,1,0,0,1,.25,1.84l-2.07.9c1.26,1.77,6.2,1.39,6.28,2.89-.57,2.76-6.29,6.6-11,4.28-1.41-1-2.18-1.85-2.3-2.6Z"/><path class="cls-29" d="M156.61,225.39c-.37,1.5-13,5-16.22,2.14-2.91-2.54-1.73-21.17-1.73-21.17l21.27-1.26C159.42,213,157.91,222.68,156.61,225.39Z"/><path class="cls-26" d="M133.42,206.39c-8.72-9.07-12.66-17.79-11.95-24.41,3-10.68,13.5-31.24,25.14-51.45l6.17,3.7c-6.67,19.33-15.76,40.94-16.18,48.69,5.19,5.93,8.15,9.52,11.77,15.44C141.57,198.8,137.66,200.94,133.42,206.39Z"/><path class="cls-26" d="M152.78,134.23c2.19-1.79,3.06-1,5.3-2.89a1,1,0,0,0-.86-1.65l-2.21.47c0-2.17,4.24-4.73,3.44-6-2.07-1.92-8.95-1.73-11.47,2.91-.58,1.62-.7,2.78-.37,3.46Z"/><path class="cls-29" d="M137.75,184.23c-1.17-1-13.45,3.47-14.46,7.67-.9,3.75,10.87,18.25,10.87,18.25l18.06-11.31C147.23,192.72,140.38,185.69,137.75,184.23Z"/><path class="cls-6" d="M159.69,208.7H160a1.08,1.08,0,0,1-.07.47Z"/><path class="cls-30" d="M139.86,196.38a5.85,5.85,0,0,0,2.83,2.41c4.23,2,11.21,1.91,11.21.09a14.56,14.56,0,0,1-1.74-5.32c-.34-2.83.41-5.4,1.33-8.39l-10.22-2.41C144.26,189,142.19,192.06,139.86,196.38Z"/><path class="cls-6" d="M139.86,196.38a5.85,5.85,0,0,0,2.83,2.41c.49-1.41.66-3.24,1.91-4.15a5.88,5.88,0,0,1,3.4-.83,36.41,36.41,0,0,0,4.16-.25c-.34-2.83.41-5.4,1.33-8.39l-10.22-2.41C144.26,189,142.19,192.06,139.86,196.38Z"/><path class="cls-26" d="M133,170.55c1.66,9,3.15,14,8.3,19,.67.67,3.08,1.08,5.9,1.08,4.41.25,9.72-.41,10.05-2.49a46.36,46.36,0,0,0,0-14c-.83-5.4-3.07-9.47-7.31-11.8Z"/><path class="cls-6" d="M133,170.55c1.66,9,3.15,14,8.3,19,.67.67,3.08,1.08,5.9,1.08a8.19,8.19,0,0,0-.58-1.91,9.22,9.22,0,0,1,.33-6.15,15.77,15.77,0,0,1,3.74-5,11.79,11.79,0,0,1,6.07-3.49h.49c-.83-5.4-3.07-9.47-7.31-11.8Z"/><path class="cls-31" d="M157.22,171.73c-2.81,3.23-3.63,2.44-6.15,3.45s.41,5.78.41,5.78l-.86,1.28a15.61,15.61,0,0,1-2-3.52c-.68-1.85-3.26-2.74-4-1s1.44,3.94,2.66,4.6,2.23,5.69-1.29,8.31-9.35-3.58-11.77-8.25-3.87-15.91,5.92-18.33,8.09-8.3,13.73-5.14C157.9,161.17,161.11,167.28,157.22,171.73Z"/><path class="cls-6" d="M164.66,249.05a83.17,83.17,0,0,0,3.49,22.76c.54,3-10.14,5-21.82,4.9a23.69,23.69,0,0,1,1.88-3.69A36.52,36.52,0,0,0,153,262.14a18.81,18.81,0,0,0-.67-11.68,15.45,15.45,0,0,0-5.91-6.85c-.87-.53-1.68-.94-2.48-1.47-4.43-2.76-6.78-7.93-7.86-13a11.27,11.27,0,0,1,.07-6.51,26.36,26.36,0,0,1,2.35-4.5,9.18,9.18,0,0,1,1.14-1.54,4.13,4.13,0,0,1,1-.94c.8,2.35-.74,5,.33,7.38.41.88.48,4.11,1.15,4.78,1.08,1.14,2.22,3.64,3.36,4.72,5.77,5.7,12.41,7.22,18.72,12.32.14.14.27.2.4.34a14.37,14.37,0,0,1,4.17,4.63c.26.6.47,1.14.67,1.74C167.75,250.73,166.21,249.86,164.66,249.05Z"/><path class="cls-32" d="M461.36,126.76A50,50,0,0,1,428.08,146c-15,1.74-28.26-6.29-42.64-8.77-18.63-3.21-42.75-5.57-60.22,3.3-9,4.59-16.09,12.08-23.38,18.94-13.37,12.59-32.92,20.92-51.48,19.53-28.19-2.13-47.85-35.08-41.86-61.79C211.91,102,226,92.81,240.23,88.8c21.28-6,54.17-1.93,67.8-23.27,6.23-9.8,5-23-.69-33.14S292.1,14.89,282.17,9c-1.7-1-3.4-2-5.1-3,89.79.56,169.31,40.41,196,74.46C474.94,96.67,471.28,113.78,461.36,126.76Z"/></g></g></g></svg>