<svg xmlns="http://www.w3.org/2000/svg" xmlns:xlink="http://www.w3.org/1999/xlink" viewBox="0 0 403.03 278.74"><defs><style>.cls-1{isolation:isolate;}.cls-2{fill:#3161a3;}.cls-16,.cls-3,.cls-4,.cls-5{mix-blend-mode:overlay;}.cls-3{fill:url(#linear-gradient);}.cls-4{fill:url(#linear-gradient-2);}.cls-5{fill:url(#linear-gradient-3);}.cls-6{fill:#7efaff;}.cls-7{fill:#90b8f0;}.cls-8{fill:#ebfffb;}.cls-9{fill:#e8b787;}.cls-10{fill:#13abc4;}.cls-11{opacity:0.1;}.cls-12{fill:#dbac82;}.cls-13{fill:#1b3f45;}.cls-14{fill:#13c5d8;}.cls-15{fill:#109ead;}.cls-16{fill:url(#linear-gradient-4);}</style><linearGradient id="linear-gradient" x1="15.48" y1="91.81" x2="204.59" y2="91.81" gradientUnits="userSpaceOnUse"><stop offset="0" stop-color="#fff"/><stop offset="1"/></linearGradient><linearGradient id="linear-gradient-2" x1="105.22" y1="206.96" x2="326.63" y2="206.96" xlink:href="#linear-gradient"/><linearGradient id="linear-gradient-3" x1="259.98" y1="99.17" x2="395" y2="99.17" xlink:href="#linear-gradient"/><linearGradient id="linear-gradient-4" x1="196.27" y1="122.9" x2="285.02" y2="227.99" xlink:href="#linear-gradient"/></defs><title>web</title><g class="cls-1"><g id="Layer_1" data-name="Layer 1"><g id="Career_Grownt" data-name="Career Grownt"><path class="cls-2" d="M361.24,128.88c-2,.49-3.79,1-5.54,1.47-10.3,3-18.07,7-24.45,12.27a44.56,44.56,0,0,0-4.62,4.2c-6.17,6.09-11.14,13.66-16.33,22.91-2.8,5-5.6,10.51-8.76,16.53-.7,1.34-1.4,2.74-2.17,4.21-1.75,3.43-3.64,7-5.6,10.79-3.3,6.16-6.94,12.82-11.07,20-20.53,35.45-70.7,50-116.17,47.78h-.07c-20.53-1-40.07-5.4-55.49-12.82a89.91,89.91,0,0,1-11.7-6.8c-1.75-1.19-3.36-2.45-4.9-3.64a87.09,87.09,0,0,1-7.92-6.8c-10.93-10.44-15.55-20.32-17.17-29.63v-.07c-.07-.29-.07-.49-.14-.71a50.33,50.33,0,0,1-.42-11.63c1.26-24.45,14.09-44.07-33.63-58C1.46,129.09.55,104.29,15.48,81.45c16.25-25,51.28-47.71,83.3-46.1h.07a55.86,55.86,0,0,1,20,4.69c29.85,13.17,49.67,29.08,73.92,37.77,1.82.7,3.78,1.33,5.67,1.89l3.71,1a109.55,109.55,0,0,0,26.42,3.57c4.27,0,8.76-.14,13.52-.49,18.43-1.61,40.5-6.93,68.66-17.51a198.22,198.22,0,0,1,20.81-6.66C419.11,37,402.92,118.79,361.24,128.88Z"/><path class="cls-3" d="M193.79,128.39c-9.67,8.27-22.63,11.35-35.1,13.87-21.58,4.42-43.79,8-65.58,5s-43.58-13.45-55.63-31.95c-5.19-7.85-8.41-16.81-13.74-24.52a52.5,52.5,0,0,0-8.26-9.32c16.25-25,51.28-47.71,83.3-46.1h.07c5.26,6.58,10.51,13.24,16.4,19.06a94.78,94.78,0,0,0,49.18,25.5c13.38,2.38,29.36,3,36.85,14.36C208.29,104.92,203.38,120.06,193.79,128.39Z"/><path class="cls-4" d="M312.47,144.72a60.74,60.74,0,0,1,14.16,2.1c-6.17,6.09-11.14,13.66-16.33,22.91-2.8,5-5.6,10.51-8.76,16.53-.7,1.34-1.4,2.74-2.17,4.21-1.75,3.43-3.64,7-5.6,10.79-3.3,6.16-6.94,12.82-11.07,20C252.85,272.72,160.51,280,111,256.19c15-4,31.11-13.52,27.33-31.67-2.6-12.05-14.79-19.13-22.63-28.66a45.48,45.48,0,0,1-10.44-29.7c.07-3.09.49-6.31,2.45-8.62,2.73-3.29,7.64-3.78,12-4,12.19-.64,24.59-1.2,36.5,1.47,13.38,2.94,25.44,9.88,38.19,14.92A145,145,0,0,0,243.6,180.1c7.29.21,14.78-.14,21.16-3.5,12.26-6.45,17.59-22.07,29.85-28.45C300,145.28,306.31,144.58,312.47,144.72Z"/><path class="cls-5" d="M361.24,128.88c-13.17,3.16-22.49,7.57-30,13.74-1.54-7.92-7.78-14.86-15.69-16.75-12.76-3.08-25.23,6-38.33,7.36-7.08.7-15.69-2.17-17.09-9.18-.7-3.85,1.12-7.78,3.43-11,6.8-9.46,17.65-15.06,28.59-19.13s22.35-7,32.43-12.82c2.6-1.54,5.26-3.36,6.87-5.88,3.36-5.4,1.82-10.65.14-15.56C419.11,37,402.92,118.79,361.24,128.88Z"/><polygon class="cls-6" points="150 73.53 138.17 86.97 157.66 103.35 166.87 90.32 150 73.53"/><polygon class="cls-2" points="141.63 86.09 144.71 82.31 146.86 83.13 144.26 88.1 141.63 86.09"/><polygon class="cls-2" points="150.75 81.21 146.4 90.15 148.22 91.99 153.34 83.26 150.75 81.21"/><polygon class="cls-2" points="154.86 86.91 150.91 92.88 152.35 94.51 157.48 88.57 154.86 86.91"/><path class="cls-7" d="M163.92,88.69a3.77,3.77,0,1,1-5.31.51A3.77,3.77,0,0,1,163.92,88.69Z"/><path class="cls-8" d="M163.15,89.63a2.55,2.55,0,1,1-3.6.35A2.55,2.55,0,0,1,163.15,89.63Z"/><polygon class="cls-7" points="169.55 95.44 167.08 96.17 166.84 98.73 162.75 94.38 164.49 92.27 169.55 95.44"/><polygon class="cls-7" points="160.38 90.66 161.49 91.09 162.24 90.17 162.17 91.36 163.28 91.8 162.13 92.09 162.06 93.28 161.42 92.28 160.26 92.58 161.02 91.66 160.38 90.66"/><path class="cls-9" d="M147.37,105s2.39-5.13,1.21-6.34a6.37,6.37,0,0,1-1.29-4s2.81,2.6,4.17,1,2.78-4,4.15-2.86,3.68,4.64-.55,9.16c-2.28,2.45-2.65,3.34-2.84,5.17S147.37,105,147.37,105Z"/><path class="cls-9" d="M41.21,197.56s-4.19.1-6.12-1.35a4.73,4.73,0,0,0-5.2-.84c-1.74.67-1.28,5.08,0,12.27s4.77,11.58,4.6,5.3,1.11-7.94,5-8.83S41.21,197.56,41.21,197.56Z"/><path class="cls-2" d="M35.09,196.21c2.07-1.43-4.27-2.29-6.29-.42s-6,1.84-6,1.84l.19,1.26s4.75-1,5.5,2.84-2,3.15-1.46,5.86,4.54,10.24,6.73,9.7,1.37-6.14-.14-8C31.78,206.91,32.87,197.74,35.09,196.21Z"/><path class="cls-10" d="M40.07,196.77l-.13,7.77C55.28,209,80.52,212.12,88,205.68c9.4-12.81,15.62-23.52,18.31-35.78l-15.17-4.44c-8.48,4.75-13.41,19.07-15.76,31.49Z"/><path class="cls-11" d="M106.32,169.9c-2.69,12.26-8.92,23-18.29,35.76-4,3.41-12.93,4.14-22.74,3.45,6.27-1.1,13-1.1,18.43-4.27,6.34-3.69,9.82-11.2,10-18.54A34.28,34.28,0,0,0,91.2,173c-.69-1.69-2.07-3.79-2.52-5.82a15.17,15.17,0,0,1,2.48-1.76Z"/><path class="cls-10" d="M114.19,207.7c-2.8,8.13-11.35,24.81-19.82,38.05a87.09,87.09,0,0,1-7.92-6.8l6.8-17.72c0-.07.07-.07.07-.14l5.6-14.51a50.42,50.42,0,0,1-3.08-9.74,11.52,11.52,0,0,1-.28-2.17,35.75,35.75,0,0,1-.63-9,41.12,41.12,0,0,1,.7-7.14,48.21,48.21,0,0,1,1.89-7.43l7.08-1.68,7.35-1.82a75.57,75.57,0,0,1,2.53,11.07v.07C115.67,187.39,115.39,196.7,114.19,207.7Z"/><path class="cls-8" d="M84.1,170.8c-.77,6.81,22,11.37,31.53,7.49-1.67-11.1-2.14-15,2.49-27,5.11-5,4.79-10.29,2.26-15.65-2.79-8.78-10.31-13.36-18.64-11C86.57,132.37,91.63,156.52,84.1,170.8Z"/><path class="cls-12" d="M113,128.07c-1.89,1.62-4.27.48-6.75-1.24-.55-.38-1.14-.79-1.73-1.24l2.8-7.13,6,1c-.21,1.34-.38,2.69-.49,3.93A17.62,17.62,0,0,0,113,128.07Z"/><path class="cls-11" d="M113.25,119.42c-.21,1.34-.38,2.69-.49,3.93-.93,0-1.86,0-2.79.1a4.81,4.81,0,0,0-3.06,1.41,4.86,4.86,0,0,0-.69,2c-.55-.38-1.14-.79-1.73-1.24l2.8-7.13Z"/><path class="cls-9" d="M118.9,112.39c.07,3.72-.49,7.27-2,9.86-1.58,1.86-7.09-.76-11.88-4.07l-.45-.31-2-15.51L116.76,101A35,35,0,0,1,118.9,112.39Z"/><path class="cls-11" d="M118.9,112.39c-2.17,1-4.83.86-7.14,1.66-2.48.86-4.44,2.72-6.64,4.1,0,0,0,0-.07,0l-.45-.31-2-15.51L116.76,101A35,35,0,0,1,118.9,112.39Z"/><path class="cls-8" d="M108.91,134.53c6.1-2.11,12.35-2.31,23.53-3.17l14.06-26.91,6.62,3c-3.92,13.11-11.74,30.65-16.43,33.33-11.67,4.63-16.32,7.4-26.22,6.94C103.75,143.87,103.78,138.42,108.91,134.53Z"/><path class="cls-13" d="M113.25,110.81c5.31,4.91,9.46-3,9.61-4.22.77-6.54-4.47-10-8.68-7.54-6.1,3.62-4.83-.06-10.93,2.28a13.32,13.32,0,0,0-7,18.25c3.76,8.23-13.45,22,6.72,17.47,6.17-1.37,9.74-7.25,7.16-12s-3.12-5.28,1.34-7.16S113.25,110.81,113.25,110.81Z"/><path class="cls-2" d="M148.45,102.13c.7.1,3.15,2.58,4.52,2.45,0,0,.12,1-.33,1.2s-4.54-1.46-4.69-2.2S147.94,102.06,148.45,102.13Z"/><path class="cls-8" d="M151.67,104.43a1.24,1.24,0,1,1-1-1.41A1.24,1.24,0,0,1,151.67,104.43Z"/><path class="cls-2" d="M150.74,104.28c0,.07,0,.07-.08.13l-.08,0c-.07.06-.07.06-.14.05a.24.24,0,0,1-.22-.3c0-.07.07-.06.08-.13l-.05-.54.19.5a.07.07,0,0,1,.08-.06A.28.28,0,0,1,150.74,104.28Z"/><polygon class="cls-2" points="151.29 104.7 151.27 104.83 150.58 104.46 150.66 104.41 151.29 104.7"/><path class="cls-11" d="M138.74,138.92a8.55,8.55,0,0,1-2,1.83c-6.65,2.65-11,4.68-15.37,5.86a13.39,13.39,0,0,1-3.24,4.65c-3.27,8.58-4,13-3.54,18.84,0,0,0-.06-.07-.1a2.89,2.89,0,0,1-.35-1.24c-.24-2.34-.51-4.69-.79-7-.34-3.17-.65-6.54.9-9.3.82-1.52,2.13-2.72,2.79-4.27.1-.25.17-.49.24-.73.34-1.48-.07-3.17-1.41-3.72a19.16,19.16,0,0,0,6.13.62,27.47,27.47,0,0,0,7.44-1.34,55.81,55.81,0,0,0,8.82-3.79A5.28,5.28,0,0,0,138.74,138.92Z"/><path class="cls-11" d="M99.64,212.28c-.93,1.17-2.17,2.06-3.14,3.2-1.38,1.72-2,3.9-3.24,5.76l5.65-14.68a48.44,48.44,0,0,1-4.06-21.09c1.1,3.45,1.89,7.1,3.31,10.44a40.57,40.57,0,0,1,3,8.13A10.34,10.34,0,0,1,99.64,212.28Z"/><path class="cls-11" d="M33.79,217.27c-2.2.56-6.16-7-6.75-9.68s2.2-2,1.48-5.86S23,198.87,23,198.87l-.17-1.24c.27,0,4,0,6-1.86a5.93,5.93,0,0,1,3.75-1.06,1.72,1.72,0,0,0-.27.27,8.17,8.17,0,0,0-1.17,1.31,6,6,0,0,0-1.07,2c-.55,1.76,0,3.66-.31,5.45-.07.41-.18.86-.24,1.27a7.76,7.76,0,0,0-.42,2.69,6.28,6.28,0,0,0,.79,2.31,5.07,5.07,0,0,0,.87,1.31.36.36,0,0,0,.13.1,3.08,3.08,0,0,0,3.66.35h0a.24.24,0,0,1,.17-.07C35.38,214,35.31,216.89,33.79,217.27Z"/><polygon class="cls-6" points="311.02 201.22 218.15 201.22 254.34 169.69 347.22 169.69 311.02 201.22"/><rect class="cls-10" x="255.59" y="148.46" width="26.62" height="13.32"/><rect class="cls-10" x="253.61" y="169.22" width="45.69" height="4.16"/><rect class="cls-10" x="260.5" y="177.76" width="35.29" height="4.16"/><rect class="cls-10" x="253.61" y="186.3" width="57.22" height="4.16"/><polygon class="cls-6" points="228.26 249.39 135.38 249.39 171.58 217.86 264.46 217.86 228.26 249.39"/><rect class="cls-10" x="143.53" y="190.23" width="37.8" height="47.55"/><rect class="cls-8" x="149.77" y="196.29" width="12.66" height="4.27"/><rect class="cls-8" x="149.77" y="207.73" width="25.4" height="3.19"/><rect class="cls-8" x="149.77" y="214.32" width="19.05" height="3.19"/><rect class="cls-8" x="149.77" y="220.91" width="25.4" height="3.19"/><path class="cls-8" d="M176,230.44a2.85,2.85,0,1,1-2.85-2.85A2.85,2.85,0,0,1,176,230.44Z"/><rect class="cls-10" x="196.64" y="215.14" width="5.37" height="14.13"/><rect class="cls-14" x="195.11" y="216.46" width="5.37" height="14.13"/><rect class="cls-10" x="206.14" y="209.53" width="5.37" height="19.26"/><rect class="cls-14" x="204.61" y="211.33" width="5.37" height="19.26"/><rect class="cls-10" x="215.64" y="212.54" width="5.37" height="16.51"/><rect class="cls-14" x="214.11" y="214.08" width="5.37" height="16.51"/><rect class="cls-10" x="225.14" y="203.89" width="5.37" height="24.42"/><rect class="cls-14" x="223.61" y="206.16" width="5.37" height="24.42"/><polygon class="cls-6" points="251.03 135.54 158.15 135.54 194.35 104.01 287.23 104.01 251.03 135.54"/><path class="cls-10" d="M232.59,121.6c0,1.78-5.16,3.26-11.54,3.26s-11.61-1.48-11.61-3.26a1.77,1.77,0,0,1,.92-1.29,1.67,1.67,0,0,1-.92-1.29,1.53,1.53,0,0,1,.8-1.16,11.14,11.14,0,0,1,3.86-1.42l3.57-21.87h6.69l.06.25,3.51,21.62c2.82.55,4.66,1.54,4.66,2.58a1.67,1.67,0,0,1-.92,1.29A1.77,1.77,0,0,1,232.59,121.6Z"/><path class="cls-11" d="M232.59,121.6c0,1.78-5.16,3.26-11.54,3.26s-11.61-1.48-11.61-3.26a1.77,1.77,0,0,1,.92-1.29,1.67,1.67,0,0,1-.92-1.29,1.53,1.53,0,0,1,.8-1.16c1.72.79,3.68.92,5.46,1.47a20.08,20.08,0,0,0,3.69,1.11,4.75,4.75,0,0,0,4.85-3.08,7.82,7.82,0,0,0,0-3.37c-.24-2-.49-4.12-.92-6.09-.12-.67-.31-1.35-.37-2a16.08,16.08,0,0,1,.12-2.4c.19-2.27-.43-4.73-.12-6.94a2.31,2.31,0,0,1,1.47-1.72l3.51,21.62c2.82.55,4.66,1.54,4.66,2.58a1.67,1.67,0,0,1-.92,1.29A1.77,1.77,0,0,1,232.59,121.6Z"/><path class="cls-15" d="M247.44,81h-6.83a1.54,1.54,0,1,1,0-3.08h5.49l2.27-16.74H243.3a1.54,1.54,0,1,1,0-3.07h6.83a1.54,1.54,0,0,1,1.16.53,1.53,1.53,0,0,1,.36,1.22L249,79.65A1.53,1.53,0,0,1,247.44,81Z"/><path class="cls-15" d="M201.42,81h-6.83a1.54,1.54,0,0,1-1.52-1.33l-2.69-19.81a1.55,1.55,0,0,1,1.52-1.75h6.83a1.54,1.54,0,1,1,0,3.07h-5.07l2.27,16.74h5.49a1.54,1.54,0,1,1,0,3.08Z"/><path class="cls-10" d="M244,51.57v23.1a23,23,0,0,1-23,23H221A22.9,22.9,0,0,1,199.42,82.6,21.22,21.22,0,0,1,198,74.67V51.57Z"/><path class="cls-11" d="M244,51.57v23.1a23,23,0,0,1-23,23H221A22.9,22.9,0,0,1,199.42,82.6a18.8,18.8,0,0,1,4.86.86A85.48,85.48,0,0,0,212.94,86a28.19,28.19,0,0,0,9.95,0,21.17,21.17,0,0,0,5.77-1.72c5.47-2.51,9.28-7.86,11-13.63a33.32,33.32,0,0,0,1.23-9.83c0-2.46-.74-4.85-.74-7.25a4.19,4.19,0,0,1,.43-2Z"/><path class="cls-8" d="M244.05,51.6c0,3.59-10.31,6.49-23,6.49s-23-2.9-23-6.49,10.31-6.48,23-6.48S244.05,48,244.05,51.6Z"/><path class="cls-11" d="M228.9,51.6c0,1.23-3.53,2.23-7.88,2.23s-7.89-1-7.89-2.23,3.53-2.22,7.89-2.22S228.9,50.38,228.9,51.6Z"/><path class="cls-15" d="M221,43.62c-11.84,0-24.59,2.45-24.59,8a4.29,4.29,0,0,0,1.47,3c3.64,3.43,13.66,5,23.12,5,7.15,0,14.64-.91,19.41-2.94a10.25,10.25,0,0,0,3.57-2.1,3.9,3.9,0,0,0,1.54-3C245.56,46.07,232.88,43.62,221,43.62Zm19.13,9.88v.07c-3.37,1.54-10,3-19.13,3-13.38,0-21.51-3.23-21.51-5s8.13-5,21.51-5,21.51,3.22,21.51,5C242.55,52.16,241.71,52.86,240.17,53.5Z"/><path class="cls-6" d="M228,28.9,231.55,40l-9.46-6.86a1.79,1.79,0,0,0-2.17,0L210.46,40,213,32.41l1.12-3.51a2,2,0,0,0-.7-2.1L204,19.94h11.7a1.82,1.82,0,0,0,1.75-1.27l1-2.94L221,7.53l3.57,11.14a1.89,1.89,0,0,0,1.76,1.27h11.7l-9.46,6.86A1.86,1.86,0,0,0,228,28.9Z"/><path class="cls-11" d="M228,28.9,231.55,40l-9.46-6.86a1.79,1.79,0,0,0-2.17,0L210.46,40,213,32.41a5.84,5.84,0,0,1,.84-.56l7.36-4.42a7,7,0,0,0,2.87-2.66,5.22,5.22,0,0,0-.91-4.7,10.5,10.5,0,0,0-3.36-3.43c-.49-.35-1-.63-1.4-.91L221,7.53l3.57,11.14a1.89,1.89,0,0,0,1.76,1.27h11.7l-9.46,6.86A1.86,1.86,0,0,0,228,28.9Z"/><path class="cls-16" d="M355.7,130.35c-10.3,3-18.07,7-24.45,12.27a44.56,44.56,0,0,0-4.62,4.2c-6.17,6.09-11.14,13.66-16.33,22.91-2.8,5-5.6,10.51-8.76,16.53-.7,1.34-1.4,2.74-2.17,4.21-1.75,3.43-3.64,7-5.6,10.79-3.3,6.16-6.94,12.82-11.07,20-20.53,35.45-70.7,50-116.17,47.78a6.4,6.4,0,0,1,1-.49c6.73-3.08,13.46-6.38,18.78-11.42s9.18-12.26,8.48-19.62c-1.47-14.5-18.5-21.86-25.3-34.68-6.09-11.63-2.17-27.46,8.62-34.89,9.67-6.59,22.35-6.24,34-6.17,26.28.14,53.39-3,76.37-15.83,9.6-5.33,18.43-12.33,29.08-15.07,5.18-1.4,10.65-1.68,16-2C341,128.46,348.77,128.11,355.7,130.35Z"/></g></g></g></svg>