<svg xmlns="http://www.w3.org/2000/svg" xmlns:xlink="http://www.w3.org/1999/xlink" viewBox="0 0 421.74 409.03"><defs><style>.cls-1{isolation:isolate;}.cls-2{fill:#3161a3;}.cls-3,.cls-4,.cls-5{mix-blend-mode:overlay;}.cls-3{fill:url(#linear-gradient);}.cls-4{fill:url(#linear-gradient-2);}.cls-5{fill:url(#linear-gradient-3);}.cls-6{opacity:0.1;}.cls-7{fill:#7efaff;}.cls-8{fill:#13abc4;}.cls-9{fill:#ebfffb;}.cls-10{fill:#dda494;}.cls-11{fill:#cbfdff;}.cls-12{fill:#62d3d3;}.cls-13{fill:#edb6a4;}.cls-14{fill:#657e80;}.cls-15{fill:#434c4a;}.cls-16{fill:#1ad2e5;}.cls-17{fill:#65c8cc;}.cls-18{fill:#1d7bd8;}.cls-19{fill:#3f7d80;}.cls-20{fill:#124787;}.cls-21{fill:#e8b787;}.cls-22{fill:#98cbf9;}.cls-23{fill:#dbac82;}.cls-24{fill:#1b3f45;}</style><linearGradient id="linear-gradient" x1="254.15" y1="160.83" x2="415.12" y2="160.83" gradientUnits="userSpaceOnUse"><stop offset="0" stop-color="#fff"/><stop offset="1"/></linearGradient><linearGradient id="linear-gradient-2" x1="16.95" y1="334.74" x2="256" y2="334.74" xlink:href="#linear-gradient"/><linearGradient id="linear-gradient-3" x1="24.37" y1="194.47" x2="199.25" y2="194.47" xlink:href="#linear-gradient"/></defs><title>web</title><g class="cls-1"><g id="Layer_1" data-name="Layer 1"><g id="Team_Leader" data-name="Team Leader"><path class="cls-2" d="M360,194.83c1.44,20.39-4.18,34.91-13.73,44.21-6.91,6.77-15.91,10.8-25.86,12.34-50.19,8-47.9,56.9-63.77,66.3-.19.1-.39.25-.59.35-12.88,7.46-38.05,16.07-72.27,16.41,0,0-26.12,29.3-80.78,49.29C69.53,396,43.86,386.62,29.64,369.61A53.26,53.26,0,0,1,17,335.44c.1-26.11,12.29-39.54,21.54-55.26,9-15.52,15.22-33.38,3.93-67.94-1.64-5.13-3.68-10.6-6.17-16.52a168.65,168.65,0,0,1-8-23.27C11.58,110,47.1,74,166.52,118.68a194.32,194.32,0,0,0,32.73,9.3c50.28,9.2,74.21-12.54,90.67-22.63a173.1,173.1,0,0,1,32.43-15.82c19.15-6.86,35.66-8.06,49.39-6a71,71,0,0,1,34.47,14.43C442.52,126.93,355.87,136.93,360,194.83Z"/><path class="cls-3" d="M360,194.83c1.44,20.39-4.18,34.91-13.73,44.21a22.66,22.66,0,0,1-10.19-7.8c-2.39-3.49-3.54-7.61-4.43-11.74-1-4.68-1.84-9.55-.7-14.23,1.94-7.91,8.86-13.38,14.28-19.45,5-5.62,9.15-12.38,10.05-19.84s-1.84-15.72-8.11-19.9c-6.07-4-14.08-3.63-21.09-1.64a52.49,52.49,0,0,0-21.49,12.09c-8.4,7.86-14.87,18.85-25.91,22.23a22.36,22.36,0,0,1-18.31-2.44,12.88,12.88,0,0,1-4.17-3.87,13.84,13.84,0,0,1-2-8.11c.1-11.19,7.16-21.09,14.52-29.55a232.91,232.91,0,0,1,29.65-28.5,225.86,225.86,0,0,1,24-16.76c19.15-6.86,35.66-8.06,49.39-6a71,71,0,0,1,34.47,14.43C442.52,126.93,355.87,136.93,360,194.83Z"/><path class="cls-4" d="M256,318c-12.88,7.46-38.05,16.07-72.27,16.41,0,0-26.12,29.3-80.78,49.29C69.53,396,43.86,386.62,29.64,369.61A53.26,53.26,0,0,1,17,335.44c.1-26.11,12.29-39.54,21.54-55.26a28.54,28.54,0,0,1,9.1,5.27c10.15,8.85,11.09,23.92,13.23,37.21S69.73,351.25,83.11,353c4.77.64,9.6-.7,14.22-2,10.15-2.89,20.74-6,28.45-13.23,4.38-4.18,7.61-9.4,11.74-13.83,7.56-8.06,17.76-13,27.75-17.71,15.52-7.31,32.14-14.77,49.1-12.38C225.86,295.45,243.31,305.25,256,318Z"/><path class="cls-5" d="M199.25,128c-2.49,7.41-9.21,13.23-16.67,15.81-8.4,3-17.65,2.59-26.51,1.2-9.8-1.49-21.63-3.58-28.25,3.88-3.78,4.23-4.53,10.39-3.83,16.06,1.05,8.36,4.93,16.47,11.39,21.89,9.6,8.11,23.83,9.85,32.13,19.3s8,23.23,7.36,35.66c-.59,11-1.49,22.88-8.65,31.24-3.38,4-7.91,6.86-12.58,9.15A79.3,79.3,0,0,1,93.9,286.1c-2.74-.9-5.52-2.09-7.36-4.33-2.34-2.88-2.54-6.91-2.44-10.64.4-16.87,4.78-34.17,0-50.39C78.28,201,60.13,187.47,41.82,178a63.93,63.93,0,0,0-13.58-5.57C11.58,110,47.1,74,166.52,118.68A194.32,194.32,0,0,0,199.25,128Z"/><polygon class="cls-6" points="46.53 327.26 184.06 358.52 348.36 229.77 201.57 185.62 46.53 327.26"/><polygon class="cls-7" points="184.06 358.52 44.3 293.95 203.63 124.88 343.39 189.45 184.06 358.52"/><polygon class="cls-8" points="195.21 212.24 124.32 179.49 160.58 141.01 231.47 173.76 195.21 212.24"/><polygon class="cls-9" points="205.71 182.04 159.82 160.83 166.69 153.56 212.58 174.77 205.71 182.04"/><polygon class="cls-9" points="187.79 194.16 141.89 172.96 148.76 165.69 194.65 186.9 187.79 194.16"/><polygon class="cls-8" points="183.26 252.93 137.69 231.88 148.27 220.65 193.85 241.7 183.26 252.93"/><polygon class="cls-8" points="152.06 264.95 120.33 250.29 130.92 239.06 162.65 253.72 152.06 264.95"/><polygon class="cls-8" points="189.84 316.91 97.69 274.33 108.27 263.1 200.43 305.68 189.84 316.91"/><polygon class="cls-8" points="218.78 301.17 177.89 282.28 212.75 245.29 253.63 264.18 218.78 301.17"/><path class="cls-10" d="M210.78,113.48c9.57,1.16,14.95-2.21,18.68-5.7,5.13-6.78,12.9-22.65,19.91-39.08l-5.1-2.07c-8.77,13-17.81,28.5-22.36,32.33-6,1.13-8.73,2.58-14,3.09C210.75,106.41,212.16,108.38,210.78,113.48Z"/><path class="cls-10" d="M244.27,66.63c.08-2.48,2.55-6.83,6.23-6.09,2.13.38,3.53,2.08.81,6.34-.72,1.1-1.37,1.71-1.94,1.82Z"/><path class="cls-11" d="M220.58,98.86c1.15.25,7.42,9.83,5.32,12.37C224,113.52,206.37,113,206.37,113l-1.43-11C210.37,100,214.94,100.2,220.58,98.86Z"/><path class="cls-12" d="M249.65,19.17,198.3,39.69a1.66,1.66,0,0,0,.12,3.13l51.23,15.84Z"/><path class="cls-8" d="M271.14,200.85a12.75,12.75,0,0,1-.68,4.05c-2.36,7.08-10.8,12.37-20.81,12.37S231.21,212,228.84,204.9a12.73,12.73,0,0,1-.67-4.05c0-9.11,9.67-16.42,21.48-16.42S271.14,191.74,271.14,200.85Z"/><path class="cls-9" d="M270.46,204.9c-2.36,7.08-10.8,12.37-20.81,12.37S231.21,212,228.84,204.9c2.37-7.31,10.8-12.6,20.81-12.6S268.1,197.59,270.46,204.9Z"/><path class="cls-8" d="M249.65,209.81a2.81,2.81,0,0,1-2.81-2.82V22a2.81,2.81,0,1,1,5.62,0V207A2.81,2.81,0,0,1,249.65,209.81Z"/><polygon class="cls-2" points="241.22 29.83 230.8 34.76 233.96 35.83 229.28 41.06 223.68 34.63 215.45 40.46 217.07 42.76 223.23 38.39 229.25 45.31 236.06 37.71 237.47 40.73 241.22 29.83"/><path class="cls-13" d="M170.54,234s-3.95,3.51-5.23,3.4-2.8,3.5-2.8,3.5,11.05,9.86,14.31,8.73-1.11-3.86-2.47-5.29,1.27-6.36,1.27-6.36Z"/><path class="cls-2" d="M166.1,236.45s-5.89,2.85-3.75,5.64c3.12,4.08,19.52,12.9,18.19,7.78-.59-2.24-2.61-2.59-5.34-7.56-1.77-3.21-1.08.57-2.52.52-1,0-5.76-3.26-5.28-4.55C168,236.71,166.1,236.45,166.1,236.45Z"/><polygon class="cls-9" points="176.22 242.75 174.58 243.69 174.87 244.04 176.31 243.34 176.22 242.75"/><polygon class="cls-9" points="176.91 244.28 175.48 244.94 175.75 245.3 176.97 244.67 176.91 244.28"/><polygon class="cls-9" points="177.93 245.83 176.78 246.44 176.43 246 177.65 245.45 177.93 245.83"/><path class="cls-14" d="M177.18,239.69c13.07-18.84,25-35.27,31.45-47.62,5.31-15,7.18-29.35,7.79-43.39l-20.84-2c-8.89,23-3.14,35.95-5.82,43.44l-22.12,45C169.93,236.88,173.5,239.51,177.18,239.69Z"/><path class="cls-6" d="M205.69,167.45a72.11,72.11,0,0,1,.14,17.86,11.24,11.24,0,0,1-.46,2,16.27,16.27,0,0,1-1,1.76c-4.27,6.66-5.5,14.79-9.22,21.7a15.11,15.11,0,0,0-2.08,4.71,2.83,2.83,0,0,0,0,1.47c6.42-9.45,11.89-17.84,15.56-24.88,5.27-15.07,7.19-29.33,7.81-43.4l-20.85-2a81.6,81.6,0,0,0-3.35,10.78,14.45,14.45,0,0,0,5.13,3c2.66.85,5.94,1.32,7.42,3.71A9.57,9.57,0,0,1,205.69,167.45Z"/><path class="cls-13" d="M209.12,247.82s-1.4,5.09-2.53,5.69-.44,4.47-.44,4.47,14.64,2.25,16.75-.47-3-2.64-5-3.1-2.4-6-2.4-6Z"/><path class="cls-2" d="M206.74,252.3s-3.39,5.6-.08,6.77c4.84,1.72,23.41.19,19.5-3.38-1.72-1.56-3.6-.75-8.6-3.43-3.23-1.73-.6,1.06-1.83,1.8-.88.54-6.61.41-6.91-.93C208.46,251.49,206.74,252.3,206.74,252.3Z"/><polygon class="cls-9" points="218.65 252.07 217.79 253.75 218.22 253.89 219.05 252.52 218.65 252.07"/><polygon class="cls-9" points="220.07 252.98 219.23 254.31 219.65 254.46 220.33 253.27 220.07 252.98"/><polygon class="cls-9" points="221.77 253.72 221.13 254.86 220.6 254.68 221.33 253.56 221.77 253.72"/><path class="cls-14" d="M217.47,249.07c6.37-22,12.47-41.43,14.59-55.18.22-15.94-2.58-30.1-6.49-43.6l-20.37,4.8c-1.09,24.61,8.51,35.08,8.37,43L207,247.83C209.71,248.73,213.93,250.07,217.47,249.07Z"/><path class="cls-11" d="M191.25,158.24c1.3,9,39.21,8,38.3,3-6.47-22.1,1.41-29.67-5.38-50.65-2-6.62-12.79-13.27-20.14-8C191.52,114.75,201.93,126.29,191.25,158.24Z"/><path class="cls-13" d="M221.2,124.49c9.64-.27,16.48-2.91,19.64-6.91,4.08-7.46,9.41-24.31,13.91-41.6l-5.35-1.29C242.66,88.83,236,105.51,232.08,110a77.26,77.26,0,0,0-14.72,2.11C220.84,116,221.82,119.24,221.2,124.49Z"/><path class="cls-13" d="M249.4,74.69c-.23-2.15-1.16-2.17-1.34-4.42a.76.76,0,0,1,1.35-.44l1,1.44c1.16-1.18.22-4.86,1.34-5.12,2.16.06,5.82,3.86,4.7,7.75-.55,1.19-1.11,1.89-1.66,2.08Z"/><path class="cls-11" d="M230.75,110.07c1.17.08,5.48,9.12,3.77,12-1.52,2.53-15.74,4.12-15.74,4.12L215,110.27C221,109.61,228.53,109.45,230.75,110.07Z"/><path class="cls-10" d="M207.86,103.5a4.45,4.45,0,0,0,2.16,1.85c3.25,1.53,8.59,1.46,8.59.06a11.41,11.41,0,0,1-1.34-4.07,15.55,15.55,0,0,1,1-6.43l-7.83-1.84C211.23,97.84,209.64,100.19,207.86,103.5Z"/><path class="cls-6" d="M207.86,103.5a4.45,4.45,0,0,0,2.16,1.85c.38-1.08.51-2.48,1.46-3.18a4.55,4.55,0,0,1,2.61-.64,26.09,26.09,0,0,0,3.18-.19,15.55,15.55,0,0,1,1-6.43l-7.83-1.84C211.23,97.84,209.64,100.19,207.86,103.5Z"/><path class="cls-13" d="M202.57,83.71c1.28,6.87,2.42,10.76,6.37,14.57.51.51,2.35.83,4.52.83,3.37.19,7.44-.32,7.7-1.91a36.06,36.06,0,0,0,0-10.75c-.64-4.14-2.36-7.26-5.6-9Z"/><path class="cls-6" d="M202.57,83.71c1.28,6.87,2.42,10.76,6.37,14.57.51.51,2.35.83,4.52.83a6.8,6.8,0,0,0-.45-1.46,7,7,0,0,1,.26-4.71,11.91,11.91,0,0,1,2.86-3.82,9.07,9.07,0,0,1,4.64-2.67h.39c-.64-4.14-2.36-7.26-5.6-9Z"/><path class="cls-15" d="M221.38,84.08c-2.16,2.47-3,2.41-4.93,3.19a1.07,1.07,0,0,0-.72.92c0,.16-.11.31,0,.41a8.35,8.35,0,0,0,1.08,3.09l-.67,1A12,12,0,0,1,214.6,90a2.27,2.27,0,0,0-.78-1,1.88,1.88,0,0,0-.46-.25,1.26,1.26,0,0,0-1.85.51,1.56,1.56,0,0,0-.1.67,1.84,1.84,0,0,0,.1.51,4.74,4.74,0,0,0,2.06,2.37c.92.46,1.69,4.32-1,6.32s-7.2-2.72-9.05-6.32-2.93-12.14,4.58-14,8.43-2.88,8.94-5.09S224.37,80.63,221.38,84.08Z"/><path class="cls-9" d="M221.91,88.06a2.64,2.64,0,0,1-1.18,2.57c-.74.32-1.42-.32-1.51-1.42a2.68,2.68,0,0,1,1.18-2.58C221.15,86.31,221.82,87,221.91,88.06Z"/><path class="cls-9" d="M211.41,89.89a1.84,1.84,0,0,0,.1.51,3.37,3.37,0,0,1-.21.31.11.11,0,0,1-.1.1.18.18,0,0,1-.15,0,.21.21,0,0,1-.05-.25A3.32,3.32,0,0,1,211.41,89.89Z"/><path class="cls-9" d="M219.53,88.4a.22.22,0,0,1-.2.2,19,19,0,0,0-3.65,0,11.13,11.13,0,0,0-1.86.36,1.88,1.88,0,0,0-.46-.25,7.46,7.46,0,0,1,2.37-.52,19.57,19.57,0,0,1,3.65,0C219.48,88.19,219.53,88.29,219.53,88.4Z"/><path class="cls-10" d="M253.14,60.41s-1-.26-2.33,1.6c-1.49,2.18,1.29,4,1.53,3.74A52.61,52.61,0,0,0,253.14,60.41Z"/><path class="cls-6" d="M221.15,161.43a7.41,7.41,0,0,0,2.32,2.25c3.83-.3,6.33-1.1,6.09-2.44-4.45-15.22-2.19-25-2.62-36.36,3.47-.73,6.88-1.7,7.61-2.86V122a14.79,14.79,0,0,0,6.22-4.33,6.6,6.6,0,0,0-2.56,1.16,12.89,12.89,0,0,1-3.29,1.4,28.39,28.39,0,0,1-8.16,1h-.06c-1.89,0-4-.12-5.43-1.1a.06.06,0,0,1,.07.06,6.16,6.16,0,0,1,.85,1.65,12.27,12.27,0,0,1,.67,2.55,7,7,0,0,1,.12,1.16,28.07,28.07,0,0,1,.18,3.17c.06,5.24-.12,10.66-1.95,15.59a56.21,56.21,0,0,0-2.25,6A13.61,13.61,0,0,0,221.15,161.43Z"/><polygon class="cls-16" points="156.31 167.62 127.31 180.37 120.88 183.2 115.38 185.62 112.5 179.24 107.05 167 94.25 138.51 94.09 138.15 80.31 107.35 75.48 96.66 70.8 86.17 84.63 77.99 89 75.42 104.43 66.31 156.31 167.62"/><polygon class="cls-9" points="99.11 81.11 92.61 86.18 114.75 130.56 121.12 121.75 99.11 81.11"/><polygon class="cls-9" points="86.04 94.75 81.45 98.51 110.03 158.1 118.82 149.6 86.04 94.75"/><path class="cls-6" d="M90.49,80.77l1.7-.37a.78.78,0,0,1,.67,1.29c-1.7,1.44-2.37.82-4.07,2.21-2.72,8-6,16.41-8.48,23.45l-4.83-10.7c2.62-5,5.55-10.28,8.58-15.58a3.8,3.8,0,0,1,.31-2.67,4.27,4.27,0,0,1,.26-.41A6.29,6.29,0,0,1,89,75.42a5.07,5.07,0,0,1,4.11.77C93.73,77.17,90.49,79.12,90.49,80.77Z"/><path class="cls-6" d="M128.13,179.09l-1.59.72a1.51,1.51,0,0,0,.77.56l-6.43,2.83-8.38-4L107.05,167c5.19,3.55,11,7.41,16.3,11.26,2.16.11,2.32-.77,4.58-.56A.76.76,0,0,1,128.13,179.09Z"/><path class="cls-13" d="M41.59,259.21s-4,3.5-5.23,3.39-2.8,3.51-2.8,3.51,11,9.86,14.3,8.73-1.1-3.87-2.46-5.3,1.27-6.36,1.27-6.36Z"/><path class="cls-17" d="M37.14,261.66s-5.89,2.86-3.75,5.65c3.13,4.07,19.53,12.9,18.19,7.78-.58-2.25-2.6-2.6-5.34-7.57-1.76-3.2-1.07.57-2.51.52-1,0-5.77-3.26-5.29-4.54C39,261.93,37.14,261.66,37.14,261.66Z"/><polygon class="cls-18" points="47.26 267.96 45.62 268.9 45.91 269.25 47.35 268.55 47.26 267.96"/><polygon class="cls-18" points="47.95 269.5 46.53 270.15 46.8 270.51 48.02 269.88 47.95 269.5"/><polygon class="cls-18" points="48.98 271.05 47.82 271.65 47.47 271.21 48.7 270.67 48.98 271.05"/><path class="cls-11" d="M48.22,264.91c13.07-18.85,25.06-35.28,31.46-47.63,5.31-15,7.18-29.35,7.79-43.39l-20.84-2c-8.89,23-3.14,36-5.82,43.44l-22.13,45C41,262.1,44.55,264.72,48.22,264.91Z"/><path class="cls-6" d="M76.73,192.67a72.11,72.11,0,0,1,.14,17.86,9.88,9.88,0,0,1-.46,2,16.41,16.41,0,0,1-1,1.76C71.19,221,70,229.07,66.25,236a15.48,15.48,0,0,0-2.09,4.71,2.82,2.82,0,0,0,0,1.47c6.41-9.44,11.89-17.84,15.56-24.88,5.26-15.07,7.18-29.33,7.8-43.4l-20.84-2a83.38,83.38,0,0,0-3.36,10.79,14.55,14.55,0,0,0,5.14,3c2.66.85,5.94,1.31,7.42,3.71A9.66,9.66,0,0,1,76.73,192.67Z"/><path class="cls-13" d="M80.17,273s-1.41,5.1-2.54,5.7-.43,4.46-.43,4.46,14.63,2.26,16.75-.46-3-2.65-5-3.1-2.39-6-2.39-6Z"/><path class="cls-17" d="M77.78,277.51s-3.39,5.6-.07,6.78c4.84,1.72,23.4.18,19.49-3.38-1.71-1.56-3.6-.76-8.6-3.44-3.22-1.72-.59,1.06-1.82,1.81-.88.53-6.61.4-6.91-.94C79.5,276.71,77.78,277.51,77.78,277.51Z"/><polygon class="cls-18" points="89.7 277.29 88.83 278.97 89.27 279.1 90.1 277.73 89.7 277.29"/><polygon class="cls-18" points="91.11 278.19 90.27 279.52 90.69 279.68 91.38 278.48 91.11 278.19"/><polygon class="cls-18" points="92.82 278.94 92.17 280.08 91.64 279.9 92.37 278.77 92.82 278.94"/><path class="cls-11" d="M88.52,274.29c6.36-22,12.47-41.43,14.58-55.18.23-16-2.58-30.1-6.48-43.6l-20.38,4.8c-1.08,24.6,8.52,35.07,8.37,43L78,273.05C80.75,273.94,85,275.29,88.52,274.29Z"/><path class="cls-19" d="M62.29,183.46c1.3,9,39.22,8,38.3,3-6.47-22.1,1.42-29.68-5.38-50.66-2-6.61-12.79-13.27-20.13-7.95C62.56,140,73,151.51,62.29,183.46Z"/><path class="cls-13" d="M79.19,139c-1.41,9.53,0,16.73,3.39,20.54,6.64,5.31,22.3,13.5,38.54,20.94l2.21-5c-12.75-9.1-28-18.54-31.73-23.19a77.2,77.2,0,0,0,.48-14.87C87.65,140.15,84.26,140.55,79.19,139Z"/><path class="cls-13" d="M123.33,175.46c2.16.15,2.33-.76,4.58-.55a.76.76,0,0,1,.2,1.41l-1.59.69c1,1.35,4.75,1.07,4.81,2.21-.43,2.12-4.81,5.06-8.45,3.28-1.07-.75-1.67-1.42-1.76-2Z"/><path class="cls-19" d="M91.73,150.93c-.28,1.15-9.93,3.82-12.42,1.65-2.23-2-1.33-16.22-1.33-16.22l16.29-1C93.88,141.42,92.73,148.86,91.73,150.93Z"/><path class="cls-13" d="M74,136.38c-6.68-6.94-9.7-13.63-9.15-18.7,2.33-8.18,10.34-23.93,19.25-39.4l4.73,2.83c-5.11,14.81-12.07,31.35-12.4,37.29a77,77,0,0,1,9,11.83C80.21,130.57,77.22,132.21,74,136.38Z"/><path class="cls-13" d="M88.8,81.11c1.67-1.37,2.34-.73,4-2.21a.76.76,0,0,0-.65-1.26L90.5,78c0-1.66,3.25-3.62,2.64-4.59-1.58-1.47-6.86-1.33-8.79,2.23a3.75,3.75,0,0,0-.28,2.65Z"/><path class="cls-19" d="M77.28,119.41c-.89-.77-10.3,2.66-11.07,5.87-.69,2.88,8.33,14,8.33,14l13.83-8.66C84.55,125.91,79.3,120.52,77.28,119.41Z"/><path class="cls-6" d="M94.09,138.15h.21a.87.87,0,0,1,0,.36Z"/><path class="cls-10" d="M78.9,128.72a4.48,4.48,0,0,0,2.16,1.84c3.25,1.53,8.6,1.47,8.6.07a11.26,11.26,0,0,1-1.34-4.08,15.34,15.34,0,0,1,1-6.42l-7.83-1.85C82.27,123.05,80.68,125.41,78.9,128.72Z"/><path class="cls-6" d="M78.9,128.72a4.48,4.48,0,0,0,2.16,1.84c.39-1.08.51-2.48,1.47-3.18a4.55,4.55,0,0,1,2.61-.64,26.09,26.09,0,0,0,3.18-.19,15.34,15.34,0,0,1,1-6.42l-7.83-1.85C82.27,123.05,80.68,125.41,78.9,128.72Z"/><path class="cls-13" d="M73.62,108.93C74.89,115.8,76,119.68,80,123.5c.51.51,2.36.83,4.52.83,3.37.19,7.45-.32,7.7-1.91a35.8,35.8,0,0,0,0-10.76c-.64-4.13-2.35-7.25-5.6-9Z"/><path class="cls-6" d="M73.62,108.93C74.89,115.8,76,119.68,80,123.5c.51.51,2.36.83,4.52.83a6.32,6.32,0,0,0-.44-1.47,7.06,7.06,0,0,1,.25-4.71,12.16,12.16,0,0,1,2.86-3.81,9.08,9.08,0,0,1,4.65-2.68h.38c-.64-4.13-2.35-7.25-5.6-9Z"/><path class="cls-20" d="M92.2,109.83c-2.16,2.47-2.78,1.87-4.71,2.64s.31,4.43.31,4.43l-.66,1a12,12,0,0,1-1.49-2.7c-.52-1.42-2.5-2.1-3.08-.75s1.1,3,2,3.52,1.71,4.36-1,6.37-7.16-2.75-9-6.32-3-12.19,4.54-14,6.2-6.36,10.52-3.94C92.72,101.75,95.18,106.42,92.2,109.83Z"/><path class="cls-6" d="M97.9,169.06a63.78,63.78,0,0,0,2.67,17.43c.41,2.32-7.76,3.81-16.71,3.76a17.5,17.5,0,0,1,1.44-2.83A28.23,28.23,0,0,0,89,179.09a14.42,14.42,0,0,0-.51-9,11.93,11.93,0,0,0-4.53-5.25c-.67-.41-1.29-.72-1.9-1.13-3.4-2.11-5.2-6.07-6-10a8.73,8.73,0,0,1,.05-5,21.14,21.14,0,0,1,1.8-3.45,7.25,7.25,0,0,1,.88-1.18,3,3,0,0,1,.77-.72c.61,1.8-.57,3.81.25,5.66.31.67.37,3.14.89,3.65.82.88,1.69,2.8,2.57,3.62,4.42,4.37,9.5,5.53,14.34,9.44.1.1.2.15.31.26a10.87,10.87,0,0,1,3.18,3.55c.21.46.36.87.52,1.33C100.26,170.34,99.08,169.68,97.9,169.06Z"/><path class="cls-21" d="M118,271s-3.84-.78-5.3-2.51a4.42,4.42,0,0,0-4.55-1.85c-1.73.24-2.22,4.35-2.55,11.17s1.93,11.54,3.08,5.79,2.68-7,6.37-7S118,271,118,271Z"/><path class="cls-2" d="M112.68,268.52c2.19-.87-3.4-3-5.63-1.7s-5.83.42-5.83.42l-.09,1.19s4.53.1,4.41,3.74-2.51,2.44-2.56,5,2,10.27,4.1,10.23,2.53-5.3,1.56-7.34C107.43,277.57,110.35,269.45,112.68,268.52Z"/><path class="cls-6" d="M107.09,287.42c-2.12,0-4.15-7.63-4.11-10.23s2.43-1.38,2.57-5-4.42-3.75-4.42-3.75l.1-1.17c.25.06,3.65.81,5.82-.44a5.49,5.49,0,0,1,3.64-.19,2.16,2.16,0,0,0-.31.19,8.42,8.42,0,0,0-1.34.95,5.72,5.72,0,0,0-1.38,1.56c-.87,1.49-.8,3.32-1.42,4.89-.15.37-.34.75-.49,1.11a7.39,7.39,0,0,0-.94,2.36,5.82,5.82,0,0,0,.24,2.27,4.35,4.35,0,0,0,.51,1.37.35.35,0,0,0,.1.12,2.86,2.86,0,0,0,3.25,1.08h0a.27.27,0,0,1,.17,0C109.22,284.77,108.55,287.39,107.09,287.42Z"/><path class="cls-21" d="M174.89,310.46s-.85,3.83-2.6,5.25a4.41,4.41,0,0,0-1.92,4.52c.21,1.74,4.31,2.3,11.12,2.73s11.58-1.73,5.84-3-6.94-2.79-6.89-6.49S174.89,310.46,174.89,310.46Z"/><path class="cls-2" d="M172.29,315.71c-.83-2.2-3,3.35-1.79,5.61s.33,5.83.33,5.83l1.19.11s.17-4.53,3.8-4.35,2.4,2.55,5,2.64,10.3-1.83,10.3-3.93-5.26-2.62-7.31-1.68C181.25,321.11,173.18,318.06,172.29,315.71Z"/><path class="cls-6" d="M191.1,321.6c0,2.13-7.69,4-10.29,4s-1.35-2.46-5-2.66-3.83,4.36-3.83,4.36l-1.16-.12c.06-.25.86-3.63-.35-5.82a5.55,5.55,0,0,1-.13-3.65,1.73,1.73,0,0,0,.19.31,7.94,7.94,0,0,0,.92,1.36,5.75,5.75,0,0,0,1.54,1.41c1.47.89,3.31.85,4.87,1.5.36.15.74.35,1.1.5a7.57,7.57,0,0,0,2.35,1,5.81,5.81,0,0,0,2.27-.2A4.46,4.46,0,0,0,185,323a.35.35,0,0,0,.12-.1,2.85,2.85,0,0,0,1.13-3.23v0a.24.24,0,0,1,0-.17C188.49,319.43,191.1,320.14,191.1,321.6Z"/><polygon class="cls-16" points="202.45 118.41 192.96 134.77 216.52 147.72 223.38 132.33 202.45 118.41"/><polygon class="cls-9" points="199.16 133.06 201.57 128.51 203.97 128.91 202.31 134.59 199.16 133.06"/><polygon class="cls-9" points="208.89 127.17 206.05 136.75 208.41 138.18 212.13 128.66 208.89 127.17"/><polygon class="cls-9" points="216.01 131.45 212.05 141.57 214.61 143.61 220.28 133.18 216.01 131.45"/><path class="cls-21" d="M206.19,151.5s1.42-5.79-.05-6.81c-1.69-1.17-2.16-3.86-2.16-3.86s3.45,2.11,4.54.21,2-4.73,3.71-3.82,4.76,4.05,1.31,9.6c-1.86,3-2.06,4-1.87,5.93S206.19,151.5,206.19,151.5Z"/><path class="cls-19" d="M113.94,268.69a12.15,12.15,0,0,0,1.47,8.08c16.8,1.47,43.59-.51,50-8.72,7.09-15.2,11.33-27.57,11.59-40.83l-16.62-1.47c-7.8,6.66-10,22.51-9.84,35.86Z"/><path class="cls-6" d="M177,227.22c-.26,13.26-4.52,25.64-11.59,40.81-3.41,4.35-12.54,7-22.85,8.25,6.27-2.43,13.23-3.81,18.21-8.22,5.81-5.12,7.87-13.62,6.57-21.26A36.12,36.12,0,0,0,162,233.58c-1.06-1.6-2.92-3.5-3.8-5.51a15.36,15.36,0,0,1,2.21-2.33Z"/><path class="cls-19" d="M172.58,312.58c1.54,2.24,5.2,2,8.68,2,5.44-16.91,10.08-40.94,10.47-51.37-3.17-16.47-7-29-14.56-39.87l-13.52,7.91a51.08,51.08,0,0,0,12.26,35.47Z"/><path class="cls-22" d="M154.2,232.74c.61,7.2,25.11,7.25,34.21,1.26-4-11.15-5.3-15.08-3-28.51,4.27-6.23,2.85-11.65-.87-16.68-4.7-8.52-13.43-11.72-21.58-7.55C148.85,192.42,159.06,216.38,154.2,232.74Z"/><path class="cls-23" d="M175.32,182.52c-1.63,2.07-4.33,1.38-7.25.11-.65-.28-1.34-.59-2-.93l1.42-8,6.37-.23c.06,1.43.16,2.86.31,4.17A18.16,18.16,0,0,0,175.32,182.52Z"/><path class="cls-6" d="M173.82,173.51c.06,1.43.16,2.86.31,4.17-1,.22-1.92.42-2.87.68a5.08,5.08,0,0,0-2.88,2.09,5.16,5.16,0,0,0-.31,2.18c-.65-.28-1.34-.59-2-.93l1.42-8Z"/><path class="cls-21" d="M178.23,165.07c.84,3.84,1,7.63,0,10.61-1.26,2.25-7.51.67-13.15-1.77l-.52-.23L159.25,158l14.43-4.31A37,37,0,0,1,178.23,165.07Z"/><path class="cls-6" d="M178.23,165.07c-2,1.51-4.82,1.88-7,3.18-2.39,1.4-4,3.73-6,5.61,0,0,0,0-.07,0l-.52-.23L159.25,158l14.43-4.31A37,37,0,0,1,178.23,165.07Z"/><path class="cls-22" d="M172.44,190.05c5.88-3.44,12.31-4.93,23.73-8.12l9-30.77,7.47,1.71c-1.36,14.39-5.85,34.17-10.15,37.9-11.14,7.21-15.39,11-25.73,12.59C169,200.79,167.93,195.14,172.44,190.05Z"/><path class="cls-24" d="M171.59,165c7.94,1.91,8.93-1.63,8.68-6.87-.18-3.82-4.84-10.45-9.44-6.39-5.61,4.95-3.35.32-9.18,4s-10.42,11-4.83,18.78,17.57,8.5,14.89,5.41c-3.76-4.34-5.27-6.29-1-9.16S171.59,165,171.59,165Z"/><path class="cls-2" d="M206.73,148.36c.75,0,3.79,2,5.18,1.6,0,0,.34,1-.09,1.32s-5-.58-5.31-1.32S206.19,148.38,206.73,148.36Z"/><path class="cls-9" d="M210.54,150.07a1.31,1.31,0,1,1-2.61.14,1.31,1.31,0,1,1,2.61-.14Z"/><path class="cls-2" d="M209.55,150.11c0,.07,0,.07-.07.15l-.06.07c-.07.07-.07.07-.14.08a.25.25,0,0,1-.29-.27c0-.07.06-.07.06-.14l-.17-.56.31.48a.06.06,0,0,1,.06-.07A.3.3,0,0,1,209.55,150.11Z"/><polygon class="cls-2" points="210.2 150.43 210.21 150.57 209.42 150.33 209.49 150.26 210.2 150.43"/><path class="cls-6" d="M204.25,188.46a8.91,8.91,0,0,1-1.73,2.31c-6.35,4.12-10.42,7.12-14.72,9.23a14.15,14.15,0,0,1-2.39,5.49c-1.63,9.56-1.46,14.31.2,20.25,0,0-.05-.06-.09-.09a3.2,3.2,0,0,1-.62-1.22c-.73-2.37-1.5-4.74-2.26-7.11-1-3.22-2-6.65-1-9.82.55-1.74,1.65-3.26,2-5a5.83,5.83,0,0,0,.1-.8c.06-1.61-.72-3.27-2.23-3.57a20.21,20.21,0,0,0,6.48-.62,29.16,29.16,0,0,0,7.44-2.92,58.6,58.6,0,0,0,8.35-5.74C203.93,188.75,204.09,188.61,204.25,188.46Z"/><path class="cls-6" d="M178.41,272.26c-.58,1.47-1.56,2.76-2.19,4.2-.87,2.16-.86,4.56-1.51,6.81l1.22-16.57a51.15,51.15,0,0,1-10.57-20.07c2.17,3.15,4.09,6.6,6.54,9.54a42.79,42.79,0,0,1,5.48,7.31C178.81,266.17,179.49,269.42,178.41,272.26Z"/></g></g></g></svg>