<svg xmlns="http://www.w3.org/2000/svg" xmlns:xlink="http://www.w3.org/1999/xlink" viewBox="0 0 409.03 338.74"><defs><style>.cls-1{isolation:isolate;}.cls-2{fill:#3161a3;}.cls-3,.cls-4,.cls-5,.cls-6{mix-blend-mode:overlay;}.cls-3{fill:url(#linear-gradient);}.cls-4{fill:url(#linear-gradient-2);}.cls-5{fill:url(#linear-gradient-3);}.cls-6{fill:url(#linear-gradient-4);}.cls-7{fill:#7efaff;}.cls-8{fill:#33aaa7;}.cls-9{opacity:0.1;}.cls-10{fill:#13abc4;}.cls-11{fill:#ebfffb;}.cls-12{mix-blend-mode:soft-light;}.cls-13{fill:#0499a8;}.cls-14{fill:#47dddd;}.cls-15{fill:#95f9f9;}.cls-16{fill:#3d7dc9;}.cls-17{fill:#4d9be8;}.cls-18{fill:#edb6a4;}.cls-19{fill:#124787;}.cls-20{fill:#ed9b80;}.cls-21{fill:#0f3c72;}.cls-22{fill:#dda494;}.cls-23{fill:#1baacc;}.cls-24{fill:#1d7bd8;}.cls-25{fill:#0e4377;}.cls-26{fill:#22b3e0;}</style><linearGradient id="linear-gradient" x1="448.56" y1="251.47" x2="242.16" y2="135.78" gradientUnits="userSpaceOnUse"><stop offset="0" stop-color="#fff"/><stop offset="1"/></linearGradient><linearGradient id="linear-gradient-2" x1="46.72" y1="109.34" x2="197.35" y2="204.21" xlink:href="#linear-gradient"/><linearGradient id="linear-gradient-3" x1="349.51" y1="202.33" x2="294.47" y2="256.28" xlink:href="#linear-gradient"/><linearGradient id="linear-gradient-4" x1="275.42" y1="-12.4" x2="260.21" y2="86.45" xlink:href="#linear-gradient"/></defs><title>web</title><g class="cls-1"><g id="Layer_1" data-name="Layer 1"><g id="Team_Building" data-name="Team Building"><path class="cls-2" d="M378.94,288.34c-1.3.52-2.61,1-3.82,1.3-51.19,16.08-88.21-40.5-150.35-20.77q-5.21,1.69-11,3.65c-10.95,3.74-23.11,8.17-36.06,12.69-12.25,4.34-25.12,8.69-38.07,12.69-56.22,17-114.1,25.72-130.44-16.43-22.42-57.7,55.79-92.2,78.82-107.33,16.43-10.68,37-68.3,76.83-111.67,16.34-17.81,36-33.19,59.87-42,1.83-.7,3.65-1.31,5.48-1.91C287.52-.88,341.66,4.94,357.48,47.79a67.14,67.14,0,0,1,3.65,14.07,51.27,51.27,0,0,1,.52,8.78c-.7,41.63-48.49,80.39-6.95,119.84C402.84,236.28,422.22,271.83,378.94,288.34Z"/><path class="cls-3" d="M378.94,288.34c-1.3.52-2.61,1-3.82,1.3-51.19,16.08-88.21-40.5-150.35-20.77q-5.21,1.69-11,3.65c.09-7,1.13-13.9,4.44-20.07,5.38-10.26,16-16.78,26.76-20.95A107.53,107.53,0,0,1,280,224.2c6.86-.26,13.82.09,20.59-1.22A44,44,0,0,0,324,209.78c3-3.31,5.56-7.3,5.91-11.74.17-3.65-1.13-7.3-2.87-10.6-6.34-11.73-17.64-19.73-26.16-29.89-15.12-18.08-20.68-45.37-9-65.88a59,59,0,0,1,16.34-18c7.56-5.65,16.34-10.16,24.94-14.07,6.43-3,15.47-8.17,24.34-11.82a67.14,67.14,0,0,1,3.65,14.07,51.27,51.27,0,0,1,.52,8.78c-.7,41.63-48.49,80.39-6.95,119.84C402.84,236.28,422.22,271.83,378.94,288.34Z"/><path class="cls-4" d="M252.67,106.1c-16.51,24-48.75,31.63-77.87,31.11-11.47-.17-23.37-1.3-34,3C134.48,142.69,129,147,124,151.55c-20.43,18.08-37.2,42.06-39.81,69.17-.78,7.83-.17,16.17,4,22.86,5.82,9.39,17.21,13.47,27.46,17.56s21.38,9.73,25,20.16a23.75,23.75,0,0,1-1,16.6c-56.22,17-114.1,25.72-130.44-16.43-22.42-57.7,55.79-92.2,78.82-107.33,16.43-10.68,37-68.3,76.83-111.67,16.34-17.81,36-33.19,59.87-42,1.83-.7,3.65-1.31,5.48-1.91,8.69,7.12,17.12,14.86,23,24.16a44.65,44.65,0,0,1,3.39,5.82A57.78,57.78,0,0,1,252.67,106.1Z"/><path class="cls-5" d="M383.29,279.3a25.55,25.55,0,0,1-8.17,10.34c-51.19,16.08-88.21-40.5-150.35-20.77q-5.21,1.69-11,3.65c-10.95,3.74-23.11,8.17-36.06,12.69-.09-.61-.18-1.22-.26-1.83-1.13-10.86,3.3-21.46,8.95-30.67,4.78-7.83,10.78-15.3,18.77-19.64,4.17-2.26,8.78-3.57,13.12-5.39,7-3.13,13.3-7.65,20.16-11.21A80.12,80.12,0,0,1,288,208.56c4.61.69,9.3,1.91,13.12,4.6a29.17,29.17,0,0,1,7.13,7.48c1.56,2.17,2.95,4.43,4.43,6.6,5.74,8.69,13.47,17,23.64,19.3,7.47,1.65,15.29-.09,22.94.6s15.3,4.26,20.16,10.26S386.15,272.09,383.29,279.3Z"/><path class="cls-6" d="M361.65,70.64c-4.26,8-13.47,13-22.34,15.82-4,1.3-8.25,2.34-12.34,1.39-3.73-.78-6.86-3.13-9.73-5.56a105.08,105.08,0,0,1-9-8.61c-5.82-6-11.3-12.42-17.47-18-9.38-8.34-21.37-14.94-33.8-13.64a26.08,26.08,0,0,0-3.65.7c-5.65,1.21-10.95,3.91-16.08,6.6-17.64,9.56-36.06,21.21-55.88,18.6a47.54,47.54,0,0,1-16.42-5.48c16.34-17.81,36-33.19,59.87-42,1.83-.7,3.65-1.31,5.48-1.91C287.52-.88,341.66,4.94,357.48,47.79a67.14,67.14,0,0,1,3.65,14.07A51.27,51.27,0,0,1,361.65,70.64Z"/><polygon class="cls-7" points="277.72 70.09 277.72 239.99 222.88 254.59 216.54 256.32 212.8 257.28 197.68 261.36 177.95 266.67 171.61 268.32 59.56 296.1 59.76 103.46 140.24 91.12 143.19 90.68 184.56 84.34 187.86 83.82 187.95 83.82 277.72 70.09"/><polygon class="cls-8" points="277.75 95.95 59.76 133.12 59.76 103.43 277.75 70.05 277.75 95.95"/><path class="cls-7" d="M87.94,113.72c0,2.68-1.87,5.16-4.18,5.54s-4.21-1.49-4.21-4.19,1.89-5.18,4.21-5.55S87.94,111,87.94,113.72Z"/><path class="cls-7" d="M102.15,111.42c0,2.66-1.84,5.12-4.12,5.49s-4.13-1.49-4.13-4.16,1.85-5.13,4.13-5.49S102.15,108.76,102.15,111.42Z"/><path class="cls-7" d="M116.11,109.16c0,2.63-1.81,5.07-4,5.44s-4.07-1.48-4.07-4.13,1.83-5.09,4.07-5.45S116.11,106.52,116.11,109.16Z"/><path class="cls-9" d="M103,286.7,71.24,295,59.56,296.1V261l36.35-3.49a4.31,4.31,0,0,1,4.65,3.86Z"/><rect class="cls-10" x="38.72" y="262.68" width="61.43" height="34.99" rx="0.65" transform="translate(138.88 560.35) rotate(180)"/><rect class="cls-11" x="60.35" y="269.86" width="33" height="4.87" transform="translate(153.7 544.59) rotate(180)"/><rect class="cls-11" x="66.11" y="279.06" width="27.24" height="4.87" transform="translate(159.47 563) rotate(180)"/><rect class="cls-11" x="45.43" y="285.83" width="48.02" height="4.87" transform="translate(138.88 576.54) rotate(180)"/><path class="cls-10" d="M107.73,161.13a6.32,6.32,0,0,1,1.44-.4l-3-7.27a1.72,1.72,0,0,0-2.24-.94L95.48,156A6.21,6.21,0,0,0,84,160.7l-8.48,3.48a1.69,1.69,0,0,0-.91,2.23l3,7.28a6.19,6.19,0,0,0,4.56,11.14l3,7.27a1.7,1.7,0,0,0,2.22,1l8.48-3.47a6.2,6.2,0,1,0,11.48-4.71l8.47-3.47a1.73,1.73,0,0,0,.94-2.25l-3-7.27a6,6,0,0,1-1.31.73,6.2,6.2,0,0,1-4.7-11.48Z"/><path class="cls-10" d="M135.34,197.77a4.13,4.13,0,0,1-.42.93l5.13,1.61a1.17,1.17,0,0,0,1.47-.77l1.87-6a4.24,4.24,0,0,0,2.53-8.1l1.87-6A1.16,1.16,0,0,0,147,178l-5.13-1.6A4.23,4.23,0,0,0,134,174l-5.13-1.6a1.15,1.15,0,0,0-1.46.75l-1.87,6A4.24,4.24,0,1,0,123,187.2l-1.87,6a1.16,1.16,0,0,0,.77,1.47l5.13,1.61a3.9,3.9,0,0,1,.18-1,4.24,4.24,0,1,1,8.09,2.53Z"/><path class="cls-10" d="M96.75,215.12a3.74,3.74,0,0,1-.38-.84l-4.17,2.55a1.07,1.07,0,0,0-.35,1.47l3,4.85a3.86,3.86,0,0,0,4,6.58l3,4.85a1,1,0,0,0,1.46.34l4.17-2.55a3.84,3.84,0,0,0,6.37-3.9l4.17-2.54a1.06,1.06,0,0,0,.36-1.46l-3-4.86a3.85,3.85,0,1,0-4-6.57l-3-4.85a1.06,1.06,0,0,0-1.47-.36l-4.17,2.55a3.8,3.8,0,0,1,.58.73,3.85,3.85,0,0,1-6.58,4Z"/><g class="cls-12"><path class="cls-2" d="M35.78,257l-1.62.22a8,8,0,0,0-.46-.81l1-1.3a1.72,1.72,0,0,0-.33-2.42l-1.43-1.09a1.72,1.72,0,0,0-2.42.32l-1,1.3a7.49,7.49,0,0,0-.9-.24l-.22-1.62a1.72,1.72,0,0,0-1.94-1.48l-1.79.24a1.72,1.72,0,0,0-1.48,1.94l.21,1.62a6.94,6.94,0,0,0-.8.46l-1.3-1a1.72,1.72,0,0,0-2.42.32l-1.1,1.44a1.73,1.73,0,0,0,.33,2.42l1.29,1a8.46,8.46,0,0,0-.23.9l-1.62.21a1.72,1.72,0,0,0-1.48,1.94l.24,1.8a1.72,1.72,0,0,0,1.94,1.48l1.62-.22a8,8,0,0,0,.46.81l-1,1.29a1.72,1.72,0,0,0,.33,2.42l1.44,1.1a1.72,1.72,0,0,0,2.41-.32l1-1.3c.3.1.6.17.9.24l.22,1.62a1.74,1.74,0,0,0,1.94,1.48l1.8-.24a1.74,1.74,0,0,0,1.48-1.94L30.63,268c.28-.15.55-.3.81-.47l1.29,1a1.73,1.73,0,0,0,2.42-.32l1.1-1.44a1.72,1.72,0,0,0-.33-2.42l-1.29-1a6.59,6.59,0,0,0,.23-.9l1.62-.22A1.71,1.71,0,0,0,38,260.29l-.24-1.79A1.71,1.71,0,0,0,35.78,257Zm-8.1,8.79a5,5,0,1,1,4.3-5.63A5,5,0,0,1,27.68,265.81Z"/><path class="cls-2" d="M49.23,248.18l-1,.13a3.72,3.72,0,0,0-.27-.48l.59-.78a1,1,0,0,0-.2-1.44l-.85-.65a1,1,0,0,0-1.44.19l-.59.77a4.72,4.72,0,0,0-.54-.13l-.13-1a1,1,0,0,0-1.15-.88l-1.07.14a1,1,0,0,0-.88,1.16l.13,1a5.5,5.5,0,0,0-.48.28l-.77-.59a1,1,0,0,0-1.44.19l-.66.86a1,1,0,0,0,.2,1.44l.77.59a3.18,3.18,0,0,0-.14.53l-1,.13a1,1,0,0,0-.88,1.16l.14,1.07a1,1,0,0,0,1.16.88l1-.13c.09.16.18.33.28.48l-.59.77a1,1,0,0,0,.19,1.44l.86.65a1,1,0,0,0,1.44-.19l.59-.77a4.26,4.26,0,0,0,.54.14l.13,1a1,1,0,0,0,1.15.89l1.07-.15a1,1,0,0,0,.88-1.15l-.13-1a3.72,3.72,0,0,0,.48-.27l.77.59a1,1,0,0,0,1.44-.2l.66-.85a1,1,0,0,0-.2-1.44l-.77-.59a5.36,5.36,0,0,0,.14-.54l1-.13a1,1,0,0,0,.88-1.15l-.15-1.07A1,1,0,0,0,49.23,248.18Zm-4.82,5.23A3,3,0,1,1,47,250.06,3,3,0,0,1,44.41,253.41Z"/><path class="cls-2" d="M33.65,241.16l-.75.1c-.07-.13-.13-.26-.21-.38l.45-.6a.8.8,0,0,0-.15-1.13l-.67-.51a.81.81,0,0,0-1.12.15l-.46.61a3.25,3.25,0,0,0-.42-.11l-.1-.76a.8.8,0,0,0-.9-.68l-.84.11a.8.8,0,0,0-.69.9l.1.75-.37.22-.6-.46a.81.81,0,0,0-1.13.15l-.51.67a.8.8,0,0,0,.15,1.12l.6.46a3.2,3.2,0,0,0-.1.42l-.76.1a.81.81,0,0,0-.69.91l.11.83a.81.81,0,0,0,.91.69l.75-.1.22.38-.46.6a.79.79,0,0,0,.15,1.12l.67.51a.8.8,0,0,0,1.12-.15l.46-.6a3.25,3.25,0,0,0,.42.11l.1.75a.8.8,0,0,0,.9.69l.84-.11a.8.8,0,0,0,.69-.9l-.1-.76a2.71,2.71,0,0,0,.37-.21l.6.46a.81.81,0,0,0,1.13-.15l.51-.67a.81.81,0,0,0-.15-1.13l-.6-.46a4.26,4.26,0,0,0,.11-.42l.75-.1a.8.8,0,0,0,.69-.9l-.11-.83A.81.81,0,0,0,33.65,241.16Zm-3.76,4.09a2.33,2.33,0,1,1,2-2.62A2.33,2.33,0,0,1,29.89,245.25Z"/></g><path class="cls-11" d="M277.58,52.91a.62.62,0,0,1-.19,0,1.08,1.08,0,0,1-.87-1.26l1.56-8.55a1.1,1.1,0,0,1,1.27-.87,1.08,1.08,0,0,1,.87,1.26L278.65,52A1.07,1.07,0,0,1,277.58,52.91Z"/><path class="cls-11" d="M271.55,85.84h-.2a1.1,1.1,0,0,1-.87-1.27l1-5.48a1.08,1.08,0,0,1,1.26-.88,1.1,1.1,0,0,1,.88,1.27l-1,5.48A1.09,1.09,0,0,1,271.55,85.84Zm3-16.46a.68.68,0,0,1-.2,0,1.08,1.08,0,0,1-.87-1.26l2-11a1.07,1.07,0,0,1,1.26-.87,1.09,1.09,0,0,1,.88,1.26l-2,11A1.09,1.09,0,0,1,274.57,69.38Z"/><path class="cls-11" d="M268,105.37l-.19,0a1.09,1.09,0,0,1-.88-1.26l1.57-8.55a1.06,1.06,0,0,1,1.26-.88,1.1,1.1,0,0,1,.88,1.27L269,104.48A1.09,1.09,0,0,1,268,105.37Z"/><path class="cls-13" d="M302.75,41.58a13.2,13.2,0,0,1-13.21,13.21A13,13,0,0,1,277,45.41a11.5,11.5,0,0,1-.6-3.83,13.16,13.16,0,0,1,13.12-13.12,11,11,0,0,1,2.34.26A13.07,13.07,0,0,1,302.75,41.58Z"/><path class="cls-14" d="M298.05,41.58a8.47,8.47,0,1,1-16.94,0,2.32,2.32,0,0,1,.09-.78,8.42,8.42,0,0,1,16.77,0A2.59,2.59,0,0,1,298.05,41.58Z"/><path class="cls-15" d="M298,40.8a8.42,8.42,0,0,1-16.77,0,8.42,8.42,0,0,1,16.77,0Z"/><path class="cls-9" d="M302.75,41.58a13.2,13.2,0,0,1-13.21,13.21A13,13,0,0,1,277,45.41a9.92,9.92,0,0,1,4.44-1.48h.69a14.3,14.3,0,0,1,1.91-.09c2.7,0,5.48.35,8.17-.43A6.39,6.39,0,0,0,295,41.76c1.13-1.48,1.13-3.57.79-5.39-.09-.18-.09-.44-.18-.61a17.45,17.45,0,0,0-1.82-4.61,16.79,16.79,0,0,0-1.92-2.43A13.07,13.07,0,0,1,302.75,41.58Z"/><path class="cls-9" d="M248,105.81a5,5,0,0,0-5,5V121c-.08-.08-.08-.26-.17-.34a1.08,1.08,0,0,0-1,.69,24.6,24.6,0,0,0,.35,5.74l-.44.87a.27.27,0,0,0-.17-.09l-12.86,19.81-9.91-.17a39.72,39.72,0,0,0-5.91-4.78.31.31,0,0,1,.26.09,13.38,13.38,0,0,1,.87-3.91c2.08.26,3.82-.18,4.52-1.4a21.53,21.53,0,0,0,2.43-9.21c1.48-.43,3-2,3.56-6.17.61-9.21-5.47-3-8.25-4.6-2.44-1.39-3-.18-4.78.43a12.62,12.62,0,0,1-3.74.52c-.95.09-2,1.74-2.43,3.31l-1.74-13.21-2.78-20.86A3.14,3.14,0,0,0,197.94,85l-10-1.13h-.09l-1-.09a3.45,3.45,0,0,0-2.26.61,3.18,3.18,0,0,0-1.31,2.26,3.38,3.38,0,0,0,2.87,3.65l8.61.87,1,8.51h-.26v-.08c-1.65-1.39-5.65-1.13-7.65,1.3-.09.09,0,.26-.09.44l-30.93,6.25L155.18,95a3.21,3.21,0,0,0-2.69-2.78l-9.3-1.57-.61-.08a2.73,2.73,0,0,0-2.34.52,3.2,3.2,0,0,0-1.39,2.08A3.34,3.34,0,0,0,141.54,97l7.56,1.21,2.52,19.21L166,226c-1,1.13-1.56,2.44-.87,3,.35.34,1,.6,1.39,1l5.13,38.33,6.34-1.66-3.3-24.59,24.59-5-.69,18.34c.52,0,1-.09,1.48-.09l-.18,1-.95.6a8,8,0,0,0-1.22,4.52l15.12-4.08c-1.65-1.3-4-.18-6.34-1.3v.08l-.18-.08-1.13-1.48a9.64,9.64,0,0,0,2.18-.87l2.78-18.77,3.47-.78,3,22.24,6.34-1.74-9.73-73.69c.87-3.22,1.74-6.78,2.61-10.78.43-2,.87-4.08,1.39-6.25.08-.26.08-.52.17-.79,3.39-1.3,6.69-2.17,9.65-3.21l.69-.26a24.91,24.91,0,0,0,3.48-1.48c.43-.17.87-.52,1.3-.69.61-.44,1.22-.7,1.83-1.13H234a9.32,9.32,0,0,0,1.13-.79c3.82-4.08,7.21-13.2,10.25-22a4.69,4.69,0,0,0,2.61.87h29.72V105.81Zm-89.95,10.6v-.09l-.34-2.26,30.5-6.26c-.35,1.13-.61,2.35-1,3.57-2.26,8.77-4.26,17.81-3.39,23.2.09.17.09.26.18.35l-22.95,4.6Zm7.3,55.18L162,146l25.12-5.13c1.48,2.09,3.13,4.09,4.87,6.26-2.18,5.65-3.65,12.69-4.79,19.9Zm.87,6.43,20-4.08c-.52,3.47-1,6.95-1.3,10.08a10.79,10.79,0,0,0,1.39,1.48c-1.39,3.82-.79,8.6-1.13,11.38l-2.7,4.09-12.86,2.6Zm5.22,39.37L170.39,210l6.87-1.39Zm2.34,18.16-.26-2.17a30.56,30.56,0,0,0,5.22,1.22Zm25.81-5.21-20.25,4.08a2.39,2.39,0,0,0,1-3c-.78-2-3.3-2.26-5-4.34l-.18-.18-.17-1.65c.69.26,1.3.7,2.08,1,4.44-6.69,12.17-12.95,17.39-21l.95-.18a124.5,124.5,0,0,0,4.52,16.43Zm-4.43-97.68-1.56-1,.17-21.38V108a.31.31,0,0,0-.26-.09l.17-1c.09-.09.09-.18.18-.27l2.78-.6.52,3.65,2.87,21.9Zm12.17,4.43v-.43c.08.08.08.08.26.08C207.5,136.83,207.41,137,207.33,137.09Zm3.73,90.9,1-6.08.7,5.73Z"/><rect class="cls-16" x="239.78" y="103.35" width="47.15" height="28.6" rx="0.75"/><path class="cls-11" d="M246.2,116.43l10.85-5v2.39l-8.2,3.59v.05l8.2,3.59v2.39l-10.85-5Z"/><path class="cls-11" d="M258.73,124.32l4.83-16.38h2.28L261,124.32Z"/><path class="cls-11" d="M278,118.44l-10.84,5V121l8.38-3.59v-.05l-8.38-3.59V111.4l10.84,5Z"/><path class="cls-17" d="M197.5,85.28a3.24,3.24,0,0,0-2.88-2.81l-11.1-1.18a3.26,3.26,0,1,0-.69,6.48l8.55.91,1.12,8.49-38.94,7.94L151.9,92.58a3.25,3.25,0,0,0-2.68-2.79l-9.92-1.67a3.26,3.26,0,0,0-1.08,6.42l7.54,1.28,30.52,230.6a3.26,3.26,0,0,0,3.23,2.83,3.11,3.11,0,0,0,.43,0,3.25,3.25,0,0,0,2.8-3.66l-2.91-22,38.95-7.93,2.85,21.51a3.25,3.25,0,0,0,3.22,2.83,2.17,2.17,0,0,0,.44,0,3.26,3.26,0,0,0,2.8-3.65ZM171.36,239.6l38.95-7.94,3.37,25.52-38.94,7.94Zm-4.23-32,38.94-7.93,3.38,25.52-38.94,7.94Zm-4.24-32,38.94-7.93,3.38,25.52-38.94,7.93Zm-4.23-32,38.94-7.93L201,161.18,162,169.11Zm34.7-39.94,3.38,25.53-38.94,7.93-3.38-25.52ZM179,297.12,175.6,271.6l38.94-7.94,3.38,25.53Z"/><path class="cls-18" d="M190.19,105.77l-4.53-1.08.3-1.2c-.38-.77-1.12-1.28-1.18-1.87-.39-.87-.93-2.34-.19-3.22,2-2.44,6-2.68,7.57-1.33.59,1-.12.72-.5,2.54a3.72,3.72,0,0,1,1.65-.86,1,1,0,0,1,.45,1.12,22,22,0,0,1-3.4,4.62Z"/><path class="cls-11" d="M201.48,136.28l-11.21-7.12.19-23.67a14.72,14.72,0,0,1-5.31-1.21c-2.66,10.06-5.62,21.54-4.56,27.88,1.34,5.54,6.5,10.19,10.8,16.1Z"/><path class="cls-18" d="M167.54,219.75l-1.46,1.86c-.73,0-.91.21-1.56.68a5,5,0,0,0-1.65,1.83L174.24,228l-2.35-3.6-.23-1.79Z"/><path class="cls-11" d="M172.05,224.52c1.57,2.17,4.16,2.38,4.91,4.41a2.41,2.41,0,0,1-1.09,3.26c-2.63-.18-10-1.93-14.12-5.63-1.24-1.11,2-4.74,3.35-5.06l1.3-.08c-.85.32-1.6.6-1,1.74,1.64,1.53,3.64,2.8,5.86,2.62C171.57,225.3,171.34,224.7,172.05,224.52Z"/><path class="cls-19" d="M166.57,219.69c1.92,2.37,2.65,2.56,6.12,3.62,6.67-10.07,22.31-18.85,23.77-35.09l3.78-19,1.9-10.21-18.25,21.89c-2.75,4-1.59,10.2-2,13.51Z"/><path class="cls-18" d="M196.85,251.69l-.33,2.33c-.65.35-.68.65-1,1.38a5.07,5.07,0,0,0-.5,2.41l11.78-2.37-3.85-1.93-1.1-1.43Z"/><path class="cls-19" d="M190.53,183.37c-1.11,10.52,2.48,25.27,6.08,35.59l-.27,33.74c3.49.16,4.92,1.05,7.13-.52l5.58-35.13-3.21-32.2Z"/><path class="cls-11" d="M203.14,253.54c2.45,1.09,4.8,0,6.46,1.34a2.4,2.4,0,0,1,.7,3.37c-2.35,1.17-9.57,3.34-15,2.24-1.63-.34-.63-5.12.35-6.06l1.08-.72c-.57.7-1.08,1.32,0,2,2.19.5,4.56.58,6.39-.69C203.13,254.46,202.62,254.06,203.14,253.54Z"/><path class="cls-11" d="M181.57,181.55c5.07,6.4,11.62,7,21.48,6.41v0c.74,0,2.63-.6,3.4-.68,3.28-5.67,4.9-14.56,7.38-25.82l0-.06c1.08-4.76,2.09-9.86,3.08-15.14a49.66,49.66,0,0,0-16.2-10.67,7,7,0,0,0-7.66,1.4C184.22,146.22,189,161.57,181.57,181.55Z"/><path class="cls-20" d="M212.52,132c-.69,1.65-1.39,3.3-1.82,4.69a11.23,11.23,0,0,0-.87,3.65,9.85,9.85,0,0,1-5.57-2.26,11.61,11.61,0,0,1-1.82-1.74c1.48-1.22,3.3-4,5.13-6.86Z"/><path class="cls-9" d="M212.52,132c-.69,1.65-1.39,3.3-1.82,4.69-1.83-.09-3.83-.87-5.39.09a3.2,3.2,0,0,0-1.05,1.3,11.61,11.61,0,0,1-1.82-1.74c1.48-1.22,3.3-4,5.13-6.86Z"/><path class="cls-18" d="M217.47,128.43a21.52,21.52,0,0,1-2.26,6.69c-1.39,2.26-6.34,1.83-10.77-.78a3.83,3.83,0,0,1-1.39-1.91c-.78-1.56-1.48-3.82-2.35-6l6.43-10.34,8.69,1.91A17,17,0,0,1,217.47,128.43Z"/><path class="cls-9" d="M217.47,128.43c-1.65-.52-3.3-1.3-4.95-1.21-3.65.17-6.17,4.17-9.47,5.21-.78-1.56-1.48-3.82-2.35-6l6.43-10.34,8.69,1.91A17,17,0,0,1,217.47,128.43Z"/><path class="cls-21" d="M221.23,119.69c-1.43,9.31-6.71,5.78-8.6,5.8a2.58,2.58,0,0,0-2.54,3.31l-.65.31s0-2.63-1-2.11-1.76.59-1.28,2.54.27,4.87-2.75,4.83-2.87-3-3.83-4.06-1.44-3.29-.23-4.59a5.54,5.54,0,0,0,1.36-4.54c-.23-1.5,1.33-5,2.74-5.14a11.62,11.62,0,0,0,3.71-.5c1.82-.61,2.37-1.84,4.81-.42C215.75,116.74,221.85,110.49,221.23,119.69Z"/><path class="cls-18" d="M238.31,125.79l4.37,1.58.41-1.16c.74-.44,1.64-.45,2-.92.8-.5,1-.79.83-1.94-.3-3.11-2.59-5.94-4.65-5.68-1,.49-.14.43-.81,2.16a3.81,3.81,0,0,0-.92-1.62,1,1,0,0,0-1,.68,22.46,22.46,0,0,0,.3,5.73Z"/><path class="cls-11" d="M212.1,145.05l13.27.23,12.87-19.88a14.48,14.48,0,0,0,5.1,1.91c-3.32,9.87-7.16,21.09-11.54,25.79-4.16,3.89-11,4.94-17.86,7.51Z"/><path class="cls-9" d="M230.94,153.85c-4.26,3.35-10.5,4.29-16.92,6.78h-.12a1.47,1.47,0,0,1-.09.71v.12c-2.43,11.22-4.11,20.16-7.34,25.73-.82.15-2.7.69-3.41.72-1.65.06-3.42.24-5,.3a.76.76,0,0,1,.1-.48,6.29,6.29,0,0,1,2.05-2.21,24.28,24.28,0,0,0,4.28-6.08c3.23-5.56,6.08-11.59,5.61-18a8.56,8.56,0,0,0-.95-3.4,4.26,4.26,0,0,0-2.57-2.16,13.77,13.77,0,0,0,5.38,1.34,7.25,7.25,0,0,0,1.53-.17,4.84,4.84,0,0,0,1.3-.17,4.77,4.77,0,0,0,1.29-.17c2.12-.31,4.36-.75,6.48-1.06,1.64-.3,3.17-.6,4.81-1C228.24,154.54,230.33,153.4,230.94,153.85Z"/><polygon class="cls-10" points="220.98 205.1 259.17 193.4 259.47 202.58 221.66 214.82 220.98 205.1"/><polygon class="cls-10" points="232.75 221 261.18 212.71 261.4 221.92 233.25 230.78 232.75 221"/><path class="cls-10" d="M219.17,168.86c.71-.26,32.53-9.83,32.53-9.83l-.78,19.24-31.75,9.6Z"/><path class="cls-22" d="M351,203.76c-7.47.9-11.68-1.73-14.59-4.46-4-5.29-10.08-17.69-15.55-30.53l4-1.62c6.85,10.15,13.91,22.26,17.47,25.26,4.7.89,6.82,2,10.95,2.42C351,198.23,349.92,199.77,351,203.76Z"/><path class="cls-22" d="M324.84,167.15c-.07-1.94-2-5.34-4.87-4.76-1.66.3-2.76,1.63-.64,5,.57.86,1.08,1.34,1.53,1.42Z"/><path class="cls-23" d="M343.35,192.33c-.9.2-5.8,7.68-4.16,9.67,1.48,1.78,15.26,1.37,15.26,1.37l1.12-8.63C351.32,193.2,347.75,193.38,343.35,192.33Z"/><path class="cls-11" d="M303.27,59.06a1.1,1.1,0,0,1-1.08-.92L299.49,41a1.09,1.09,0,0,1,.9-1.24,1.06,1.06,0,0,1,1.25.9l2.7,17.17a1.09,1.09,0,0,1-.91,1.24Z"/><path class="cls-11" d="M309.13,96.33a1.08,1.08,0,0,1-1.07-.92l-2.52-16a1.09,1.09,0,1,1,2.15-.34l2.52,16a1.1,1.1,0,0,1-.91,1.25Z"/><path class="cls-11" d="M318.36,154.9a1.1,1.1,0,0,1-1.08-.92l-2.51-16a1.1,1.1,0,0,1,.9-1.25,1.08,1.08,0,0,1,1.25.91l2.51,16a1.08,1.08,0,0,1-.9,1.24Zm-5.87-37.27a1.09,1.09,0,0,1-1.07-.92l-3.36-21.3a1.09,1.09,0,0,1,2.15-.34l3.35,21.3a1.08,1.08,0,0,1-.9,1.24Z"/><path class="cls-11" d="M321.06,172.06a1.08,1.08,0,0,1-1.07-.91L317.28,154a1.09,1.09,0,0,1,.91-1.24,1.05,1.05,0,0,1,1.24.9l2.71,17.17a1.09,1.09,0,0,1-.91,1.24Z"/><path class="cls-18" d="M378.14,303.27s2.79,3.05,3.79,3.06,1.9,2.95,1.9,2.95-9.38,6.78-11.82,5.64,1.17-2.92,2.34-3.92-.48-5-.48-5Z"/><path class="cls-19" d="M381.4,305.54s4.35,2.69,2.46,4.69c-2.76,2.91-16.21,8.45-14.76,4.58.63-1.69,2.23-1.8,4.76-5.45,1.63-2.34.79.53,1.91.61.8.06,4.74-2.07,4.47-3.11C379.91,305.59,381.4,305.54,381.4,305.54Z"/><polygon class="cls-24" points="373.03 309.63 374.23 310.49 373.97 310.73 372.91 310.07 373.03 309.63"/><polygon class="cls-24" points="372.37 310.76 373.42 311.38 373.19 311.64 372.29 311.06 372.37 310.76"/><polygon class="cls-24" points="371.45 311.88 372.3 312.44 372.6 312.13 371.69 311.61 371.45 311.88"/><path class="cls-25" d="M372.53,307.17c-8.65-15.69-16.64-29.42-20.63-39.54-2.92-12.11-3.22-23.38-2.57-34.34l16.35.15c5.07,18.56-.44,28.19,1,34.23l13.59,36.75C378.39,305.57,375.4,307.32,372.53,307.17Z"/><path class="cls-9" d="M356.17,248.74a56.26,56.26,0,0,0-1.55,13.87,8,8,0,0,0,.2,1.59,12.58,12.58,0,0,0,.6,1.45c2.78,5.51,3.08,11.93,5.42,17.6a11.8,11.8,0,0,1,1.24,3.82,2.22,2.22,0,0,1-.1,1.15,213.9,213.9,0,0,1-10.09-20.59,116,116,0,0,1-2.59-34.35l16.36.15a64.27,64.27,0,0,1,1.74,8.65,11.4,11.4,0,0,1-4.22,1.89c-2.14.45-4.73.55-6.07,2.29A7.27,7.27,0,0,0,356.17,248.74Z"/><path class="cls-18" d="M353,309.49s1.1,4,2,4.45.34,3.49.34,3.49-11.43,1.75-13.09-.37,2.37-2.07,3.87-2.42,1.87-4.71,1.87-4.71Z"/><path class="cls-19" d="M354.85,313s2.65,4.37.06,5.29c-3.78,1.34-18.28.15-15.23-2.64,1.34-1.22,2.81-.59,6.72-2.68,2.52-1.35.46.83,1.43,1.41.68.41,5.16.31,5.39-.73C353.51,312.36,354.85,313,354.85,313Z"/><polygon class="cls-24" points="345.54 312.81 346.22 314.13 345.88 314.23 345.23 313.16 345.54 312.81"/><polygon class="cls-24" points="344.44 313.52 345.09 314.56 344.76 314.68 344.23 313.75 344.44 313.52"/><polygon class="cls-24" points="343.11 314.1 343.61 314.99 344.02 314.85 343.45 313.97 343.11 314.1"/><path class="cls-19" d="M346.46,310.47c-5-17.21-9.74-32.37-11.39-43.11-.18-12.46,2-23.52,5.07-34.07L356.06,237c.84,19.22-6.66,27.41-6.54,33.62l5.14,38.84C352.53,310.2,349.23,311.25,346.46,310.47Z"/><path class="cls-26" d="M367.18,236.72c-1,7.07-30.86,9-30.15,5.14,5.06-17.26-1.11-23.18,4.2-39.57,1.59-5.17,10.33-10.71,16.07-6.55C370.86,205.58,362.39,219.2,367.18,236.72Z"/><path class="cls-18" d="M343.55,213.13c-7.53-.2-12.87-2.27-15.34-5.4-3.19-5.83-7.36-19-10.87-32.49l4.18-1c5.27,11.05,10.46,24.08,13.53,27.57a59.94,59.94,0,0,1,11.5,1.65C343.84,206.48,343.07,209,343.55,213.13Z"/><path class="cls-18" d="M321.52,174.22c.18-1.68.91-1.69,1.05-3.45a.6.6,0,0,0-1.06-.34l-.75,1.13c-.91-.93-.17-3.8-1.05-4-1.68,0-4.54,3-3.67,6.06.44.93.87,1.48,1.3,1.63Z"/><path class="cls-26" d="M336.09,201.87c-.92.06-4.28,7.12-2.95,9.33,1.2,2,12.3,3.23,12.3,3.23l3-12.41C343.7,201.51,337.83,201.38,336.09,201.87Z"/><path class="cls-22" d="M354,196.74a3.59,3.59,0,0,1-1.69,1.44c-2.54,1.19-6.71,1.14-6.71,0a9,9,0,0,0,1-3.18,12.05,12.05,0,0,0-.8-5l6.12-1.44C351.34,192.31,352.59,194.15,354,196.74Z"/><path class="cls-9" d="M354,196.74a3.59,3.59,0,0,1-1.69,1.44c-.3-.85-.4-1.94-1.15-2.49a3.51,3.51,0,0,0-2-.5,20.78,20.78,0,0,1-2.49-.14,12.05,12.05,0,0,0-.8-5l6.12-1.44C351.34,192.31,352.59,194.15,354,196.74Z"/><path class="cls-18" d="M358.1,181.27c-1,5.37-1.88,8.41-5,11.39-.4.4-1.84.65-3.53.65-2.63.15-5.81-.25-6-1.5a27.73,27.73,0,0,1,0-8.4c.49-3.23,1.84-5.67,4.37-7.06Z"/><path class="cls-9" d="M358.1,181.27c-1,5.37-1.88,8.41-5,11.39-.4.4-1.84.65-3.53.65a5.05,5.05,0,0,1,.35-1.15,5.48,5.48,0,0,0-.2-3.68,9.47,9.47,0,0,0-2.24-3,7.07,7.07,0,0,0-3.63-2.09h-.29c.49-3.23,1.84-5.67,4.37-7.06Z"/><path class="cls-19" d="M343.41,181.55a7,7,0,0,0,3.86,2.5c1.51.6-.25,3.46-.25,3.46l.52.76a9.49,9.49,0,0,0,1.17-2.1c.4-1.11,2-1.65,2.4-.59s-.86,2.35-1.59,2.75-1.34,3.41.77,5,5.6-2.15,7-4.94,2.31-9.52-3.55-11-6.62-2.25-7-4S341.08,178.88,343.41,181.55Z"/><path class="cls-22" d="M318.6,163.07s.82-.2,1.82,1.24c1.17,1.71-1,3.16-1.2,2.93A41,41,0,0,1,318.6,163.07Z"/><path class="cls-9" d="M343.59,242a5.71,5.71,0,0,1-1.81,1.76c-3-.24-4.95-.85-4.76-1.9,3.48-11.9,1.72-19.51,2.05-28.41-2.71-.57-5.38-1.33-5.95-2.24v0a11.48,11.48,0,0,1-4.85-3.38,5.08,5.08,0,0,1,2,.9,10.22,10.22,0,0,0,2.57,1.1,22.12,22.12,0,0,0,6.38.8h.05a7.8,7.8,0,0,0,4.23-.85s0,.05,0,.05a4.49,4.49,0,0,0-.67,1.28,9.2,9.2,0,0,0-.52,2,5,5,0,0,0-.1.9,22.91,22.91,0,0,0-.14,2.48c0,4.09.09,8.33,1.52,12.18a43.15,43.15,0,0,1,1.76,4.71A10.57,10.57,0,0,1,343.59,242Z"/></g></g></g></svg>